<?xml version="1.0" encoding="utf-8"?>
<!-- Generator: Adobe Illustrator 20.1.0, SVG Export Plug-In . SVG Version: 6.00 Build 0)  -->
<svg version="1.1" id="Layer_1" xmlns="http://www.w3.org/2000/svg" xmlns:xlink="http://www.w3.org/1999/xlink" x="0px" y="0px"
	 viewBox="0 0 168.1 56.8" style="enable-background:new 0 0 168.1 56.8;" xml:space="preserve">
<style type="text/css">
	.st0{fill:#77777A;}
	.st1{fill:#FF5000;}
	.st2{opacity:0.15;fill:url(#SVGID_1_);enable-background:new    ;}
	.st3{fill:#FFFFFF;}
	.st4{opacity:0.08;}
</style>
<title>brave_logo_horz</title>
<g>
	<path class="st0" d="M56.4,28.2V10.9H58c1.3,0,2.4,1.1,2.4,2.4V21c2.6-2.4,4.9-3.3,7.9-3.4c5.8-0.1,10.7,4.2,11.2,9.9
		c0.6,6.8-4.4,12-10.9,12C61.6,39.6,56.4,35.2,56.4,28.2z M60.4,29.6c0.4,3.6,3.8,6.5,7.4,6.6c4.7,0.1,7.9-3,7.9-7.5
		s-3.1-7.5-7.7-7.5C63.2,21.1,59.9,24.7,60.4,29.6z"/>
</g>
<g>
	<path class="st0" d="M86.4,18.1v3.1c2.6-2.9,4.1-3.6,7.1-3.6c0.8,0,1.4,0,2.6,0.2v4.1c-1.2-0.3-1.9-0.4-2.8-0.4
		c-2.2,0-4,0.7-5.4,2.1c-1.2,1.2-1.5,2.1-1.5,4V39h-4.2V18.1H86.4z"/>
	<path class="st0" d="M97.1,25c0.2-2,0.6-3.1,1.5-4.2c1.7-2.1,4.9-3.2,9.3-3.2c3.5,0,6.1,0.5,7.9,1.7c1.5,1,2.1,2.4,2.1,4.9v9.2
		c0,2,0.5,2.7,2,2.7c0.3,0,0.6,0,1-0.1v2.8c-0.8,0.3-1.3,0.3-2.2,0.3c-2.7,0-3.9-0.8-4.7-3.1c-2.6,2.4-5.3,3.4-9.2,3.4
		c-5.2,0-8.4-2.4-8.4-6.2c0-2.2,1.3-4.2,3.3-5.1c1.6-0.7,2.5-0.9,7-1.3c3.8-0.4,4.5-0.5,5.6-0.8c1.2-0.4,1.7-1,1.7-2.1
		c0-2.2-1.9-3.2-5.8-3.2c-3.7,0-5.6,0.7-6.4,2.6c-0.4,0.9-1.3,1.6-2.3,1.6L97.1,25L97.1,25z M113.9,28.5c-2.4,0.7-4.8,1.2-8.2,1.5
		c-3.8,0.4-5,1.1-5,3c0,2.1,1.7,3.2,5.2,3.2c2.8,0,5-0.7,6.5-2.1c1.2-1.1,1.5-1.9,1.5-3.9V28.5z"/>
	<path class="st0" d="M131.1,38.9H130c-1,0-1.9-0.5-2.3-1.4l-9.1-19.3h2.5c1.5,0,2.8,0.9,3.4,2.2l6.1,13.9l6.3-14
		c0.6-1.3,1.9-2.2,3.4-2.2h2.3l-9.4,19.4C132.9,38.3,132,38.9,131.1,38.9z"/>
	<path class="st0" d="M145.5,29.7c0.4,4,3.6,6.5,8.2,6.5c2.6,0,4.6-0.8,5.9-2.4c0.7-0.9,1.8-1.4,3-1.4h2.5c-2.1,4.7-6,7-11.7,7
		c-7.1,0-11.9-4.3-11.9-10.8s4.9-11,12-11c5.1,0,9.3,2.3,10.9,6.2c0.7,1.8,1,3.4,1,5.9C165.4,29.7,145.5,29.7,145.5,29.7z
		 M161.1,26.5c-1-3.7-3.8-5.7-7.7-5.7c-4,0-6.8,2.1-7.8,5.7H161.1z"/>
</g>
<g>
	<path class="st1" d="M45.3,17.4l-1.6-4.3l1.1-2.5c0.1-0.3,0.1-0.7-0.2-0.9l-3-3c-1.3-1.3-3.3-1.8-5-1.2l-0.8,0.3l-4.6-4.9h-7.7
		h-0.1L15.6,1L11,6l-0.8-0.3C8.6,5,6.6,5.5,5.3,6.8l-3,3.1c-0.2,0.2-0.2,0.5-0.1,0.7l1.1,2.6l-1.6,4.3l1,3.9L7.3,39
		c0.5,2,1.8,3.8,3.5,5c0,0,5.6,4,11.2,7.6c0.5,0.3,1,0.5,1.5,0.5s1.1-0.2,1.5-0.5c6.2-4.1,11.2-7.6,11.2-7.6c1.7-1.2,2.9-3,3.5-5
		l4.6-17.6L45.3,17.4z"/>
</g>
<linearGradient id="SVGID_1_" gradientUnits="userSpaceOnUse" x1="1.6" y1="583.3342" x2="23.7611" y2="583.3342" gradientTransform="matrix(1 0 0 1 0 -554)">
	<stop  offset="0" style="stop-color:#FFFFFF"/>
	<stop  offset="0.1413" style="stop-color:#FFFFFF;stop-opacity:0.9576"/>
	<stop  offset="1" style="stop-color:#FFFFFF;stop-opacity:0.7"/>
</linearGradient>
<path class="st2" d="M7.5,39.7L1.6,17.8l1.7-4.3l-1.2-3.2L5,7.5c0.9-0.8,2.8-1.1,3.6-0.6l4.5,2.6l5.8,1.3l4.5-1.9l0.4,38.8
	c-0.1,5.6,0.3,5-3.8,2.4L9.8,43.2C8.7,42.2,7.9,41,7.5,39.7z"/>
<g>
	<g>
		<g>
			<path class="st3" d="M24.8,32.6c-0.4-0.2-0.8-0.3-0.9-0.3s-0.2,0-0.3,0s-0.2,0-0.3,0c-0.1,0-0.5,0.1-0.9,0.3L21,33.2
				c-0.4,0.2-1.1,0.5-1.6,0.7l-2.5,1.3c-0.4,0.2-0.4,0.6-0.1,0.9l2.2,1.6c0.4,0.3,1,0.8,1.4,1.1l0.6,0.5c0.4,0.3,0.9,0.8,1.3,1.1
				l0.6,0.5c0.4,0.3,0.9,0.3,1.3,0l0.6-0.5c0.4-0.3,0.9-0.8,1.3-1.1l0.6-0.5c0.4-0.3,1-0.8,1.4-1.1l2.2-1.6c0.4-0.3,0.4-0.7-0.1-0.9
				l-2.5-1.3c-0.4-0.2-1.1-0.5-1.6-0.7L24.8,32.6z"/>
		</g>
		<g>
			<path class="st3" d="M40.4,18.4c0.1-0.2,0.1-0.2,0.1-0.2c0-0.3,0-0.7-0.1-0.9c0-0.2-0.6-1.1-0.8-1.5l-1.4-2.1
				c-0.3-0.4-0.7-1-1-1.4l-1.9-2.4c-0.3-0.4-0.6-0.7-0.6-0.7l0,0c0,0-0.4,0.1-0.9,0.2L30.9,10c-0.5,0.1-1,0.2-1.3,0.2
				s-0.8,0-1.3-0.2L26,9.2c-0.5-0.1-1.2-0.4-1.7-0.5c0,0-0.2,0-0.7,0s-0.7,0-0.7,0c-0.5,0.1-1.2,0.3-1.7,0.5L18.9,10
				c-0.5,0.1-1,0.2-1.3,0.2c-0.2,0-0.8-0.2-1.3-0.2l-2.9-0.6c-0.5-0.1-0.8-0.2-0.9-0.2l0,0c0,0-0.3,0.3-0.6,0.7L10,12.2
				c-0.3,0.4-0.8,1-1,1.4l-1.4,2.1c-0.3,0.4-0.6,0.9-0.7,1.1s-0.2,1.1-0.2,1.3c0,0,0,0,0.1,0.2c0.1,0.4,0.1,0.4,0.1,0.4
				c0.3,0.4,0.8,1,1.1,1.3l5,5.3c0.3,0.3,0.4,1,0.3,1.4l-0.8,1.9c-0.2,0.4-0.2,1.2,0,1.6l0.2,0.5c0.3,0.7,0.7,1.4,1.3,1.9l0.8,0.6
				c0.4,0.3,1,0.4,1.4,0.2l2.8-1.3c0.4-0.2,1.1-0.6,1.4-0.9l2.2-2c0.4-0.3,0.4-0.9,0-1.3l-5.1-3.4c-0.4-0.3-0.5-0.8-0.3-1.2l2-3.7
				c0.2-0.4,0.3-1.1,0.1-1.5c-0.2-0.4-0.7-0.8-1.1-1L12,14.8c-0.4-0.2-0.4-0.3,0.1-0.4l3.6-0.3c0.5,0,1.2,0,1.7,0.2l3.2,0.9
				c0.5,0.1,0.8,0.6,0.7,1.1L20.1,23C20,23.5,20,24,20,24.1c0.1,0.2,0.5,0.4,0.9,0.5l1.9,0.4c0.5,0.1,1.2,0.1,1.7,0l1.7-0.4
				c0.5-0.1,0.9-0.3,0.9-0.5s0-0.7-0.1-1.1l-1.2-6.8c-0.1-0.5,0.2-1,0.7-1.1l3.1-0.9c0.5-0.1,1.2-0.2,1.7-0.2l3.6,0.3
				c0.5,0,0.5,0.2,0.1,0.4L28.8,17c-0.4,0.2-0.9,0.6-1.1,1s-0.1,1,0.1,1.5l2,3.7c0.2,0.4,0.1,1-0.3,1.2l-5,3.6c-0.4,0.4-0.3,1,0,1.3
				l2.2,2c0.4,0.3,1,0.7,1.4,0.9l2.8,1.3c0.4,0.2,1.1,0.1,1.4-0.2l0.8-0.6c0.6-0.5,1.1-1.1,1.3-1.9l0.2-0.5c0.2-0.4,0.1-1.2,0-1.6
				l-0.8-1.9c-0.2-0.4-0.1-1.1,0.3-1.4l5-5.3c0.3-0.3,0.8-0.9,1.1-1.3C40.3,18.8,40.3,18.8,40.4,18.4z"/>
		</g>
	</g>
</g>
<path class="st4" d="M36.2,43.9l-8.6,5.9c-2.4,1.3-3.6,2.6-3.8,2c-0.2-0.5,0-1.9-0.1-4.2l-0.1-38c0-0.4,0.3-1,0.7-0.9l4.4,1.3L35,9
	l4.3-3c0.5-0.3,1.1-0.3,1.5,0.1l3.7,3.6c0.3,0.4,0.4,1.1,0.2,1.5l-1,1.9l1.7,4.5l-5.9,22.1C38.6,42.3,37.3,43,36.2,43.9z"/>
<g>
	<path class="st0" d="M167.4,18.4c0,1-0.8,1.7-1.8,1.7s-1.8-0.8-1.8-1.7c0-1,0.8-1.7,1.8-1.7C166.6,16.7,167.4,17.5,167.4,18.4z
		 M164.3,18.4c0,0.8,0.6,1.4,1.3,1.4c0.8,0,1.3-0.6,1.3-1.4s-0.6-1.4-1.3-1.4C164.9,17.1,164.3,17.7,164.3,18.4z M165.4,19.3H165
		v-1.7c0.2,0,0.4-0.1,0.7-0.1s0.5,0.1,0.6,0.1c0.1,0.1,0.2,0.2,0.2,0.4c0,0.2-0.1,0.3-0.4,0.4l0,0c0.2,0.1,0.3,0.2,0.3,0.4
		c0.1,0.3,0.1,0.4,0.1,0.4H166c-0.1-0.1-0.1-0.2-0.1-0.4c0-0.2-0.1-0.3-0.4-0.3h-0.2L165.4,19.3L165.4,19.3z M165.4,18.4h0.2
		c0.2,0,0.4-0.1,0.4-0.3c0-0.2-0.1-0.3-0.4-0.3c-0.1,0-0.2,0-0.2,0V18.4z"/>
</g>
</svg>
