<svg xmlns="http://www.w3.org/2000/svg" viewBox="0 0 246.86 48.61"><defs><style>.cls-1{fill:#fff;}.cls-2,.cls-3{fill:none;stroke-miterlimit:10;}.cls-2{stroke:#fff;}.cls-3{stroke:#d1d3d4;stroke-width:0.5px;}</style></defs><title>CD_BR_logos</title><g id="Layer_2" data-name="Layer 2"><g id="Layer_1-2" data-name="Layer 1"><path class="cls-1" d="M245.69,17.28a1.87,1.87,0,0,1,.61.41,1.91,1.91,0,0,1,.41.61,2,2,0,0,1,0,1.52,1.88,1.88,0,0,1-1,1,2,2,0,0,1-1.52,0,1.88,1.88,0,0,1-1-1,2,2,0,0,1,0-1.52,1.91,1.91,0,0,1,.41-.61,1.86,1.86,0,0,1,.61-.41,2,2,0,0,1,1.52,0Zm-1.41.26a1.63,1.63,0,0,0-.52.35,1.59,1.59,0,0,0-.34.52,1.79,1.79,0,0,0,0,1.3,1.6,1.6,0,0,0,.34.52,1.6,1.6,0,0,0,1.17.48,1.61,1.61,0,0,0,1.16-.48,1.65,1.65,0,0,0,.34-.52,1.75,1.75,0,0,0,0-1.3,1.65,1.65,0,0,0-.34-.52,1.66,1.66,0,0,0-1.81-.35Zm0,2.64V17.94h.86a.81.81,0,0,1,.55.16.59.59,0,0,1,.17.46.67.67,0,0,1,0,.25.52.52,0,0,1-.12.18.6.6,0,0,1-.18.12l-.21.06.66,1h-.32l-.63-1h-.46v1Zm.88-1.23a.7.7,0,0,0,.21,0,.32.32,0,0,0,.15-.12.37.37,0,0,0,.06-.22.37.37,0,0,0,0-.19.33.33,0,0,0-.12-.12.5.5,0,0,0-.17-.06l-.2,0h-.5v.77h.61Z"/><path class="cls-1" d="M176.93,26.1V15.7h1a1.47,1.47,0,0,1,1.47,1.47v4.62a6.8,6.8,0,0,1,4.76-2,6.59,6.59,0,0,1,6.76,6A6.49,6.49,0,0,1,184.34,33C180,33,176.93,30.3,176.93,26.1Zm2.42.82a4.68,4.68,0,0,0,4.46,4,4.36,4.36,0,0,0,4.74-4.52,4.61,4.61,0,1,0-9.2.56Z"/><path class="cls-1" d="M195,20v1.85c1.55-1.72,2.47-2.18,4.28-2.18a10,10,0,0,1,1.58.13v2.46a6.37,6.37,0,0,0-1.71-.23,4.43,4.43,0,0,0-3.23,1.24,2.84,2.84,0,0,0-.92,2.38v6.85h-2.55V20Z"/><path class="cls-1" d="M201.48,24.16a4.23,4.23,0,0,1,.89-2.51c1.05-1.29,2.94-2,5.62-2a8.61,8.61,0,0,1,4.75,1c.89.58,1.26,1.45,1.26,3v5.56c0,1.22.32,1.65,1.18,1.62a5.4,5.4,0,0,0,.58-.05v1.67a3.79,3.79,0,0,1-1.34.2c-1.6,0-2.34-.48-2.84-1.88A7.48,7.48,0,0,1,206,32.89c-3.12,0-5-1.42-5-3.73a3.28,3.28,0,0,1,2-3c.95-.41,1.52-.53,4.23-.81a15.89,15.89,0,0,0,3.36-.48,1.22,1.22,0,0,0,1-1.24c0-1.34-1.13-2-3.49-2s-3.39.44-3.85,1.57a1.52,1.52,0,0,1-1.41,1Zm10.11,2.13a25,25,0,0,1-5,.91c-2.28.23-3,.66-3,1.8s1.05,1.93,3.12,1.93a5.58,5.58,0,0,0,3.91-1.27,2.62,2.62,0,0,0,.92-2.36Z"/><path class="cls-1" d="M221.92,32.53h-.66a1.5,1.5,0,0,1-1.36-.85L214.4,20h1.53A2.25,2.25,0,0,1,218,21.35l3.67,8.39,3.8-8.41a2.25,2.25,0,0,1,2.06-1.3h1.39L223.28,31.7A1.5,1.5,0,0,1,221.92,32.53Z"/><path class="cls-1" d="M230.64,27c.26,2.41,2.15,3.91,5,3.91a4.25,4.25,0,0,0,3.54-1.42,2.28,2.28,0,0,1,1.78-.86h1.48c-1.29,2.84-3.6,4.24-7,4.24-4.31,0-7.19-2.61-7.19-6.52s3-6.65,7.25-6.65c3.1,0,5.59,1.4,6.59,3.73a8.45,8.45,0,0,1,.63,3.58Zm9.4-1.93a4.87,4.87,0,0,0-9.32,0Z"/><path class="cls-2" d="M170.26,19.61l-1-2.58.66-1.48a.51.51,0,0,0-.1-.56l-1.8-1.82a2.9,2.9,0,0,0-3-.7l-.5.17-2.75-3-4.66,0h0l-4.69,0-2.74,3-.49-.17a2.91,2.91,0,0,0-3,.71l-1.83,1.85a.4.4,0,0,0-.08.45l.69,1.54L144,19.63l.61,2.33,2.79,10.61a5.4,5.4,0,0,0,2.09,3s3.39,2.39,6.73,4.56a1.49,1.49,0,0,0,1.86,0c3.75-2.46,6.72-4.57,6.72-4.57a5.41,5.41,0,0,0,2.09-3l2.78-10.61Z"/><path class="cls-1" d="M158,28.82a6.41,6.41,0,0,0-.71-.27H157a6.41,6.41,0,0,0-.71.27l-.51.21c-.35.15-.92.41-1.25.59l-1.22.64a.39.39,0,0,0,0,.72l1,.74c.31.22.8.6,1.09.85l.11.1,1,.91.09.08a.81.81,0,0,0,1,0l.11-.1,1-.91.12-.1c.29-.25.78-.64,1.09-.86l1-.75a.39.39,0,0,0-.05-.72l-1.22-.62c-.34-.17-.91-.43-1.26-.58Z"/><path class="cls-1" d="M167.31,20.18l0-.14a3.64,3.64,0,0,0,0-.55,5.76,5.76,0,0,0-.59-1.07l-.66-1c-.21-.32-.58-.82-.82-1.12l-.94-1.18c-.24-.3-.44-.54-.45-.54h0l-.68.13-1.43.28-.95.18a2.72,2.72,0,0,1-.92-.16l-1.07-.35c-.36-.12-.94-.28-1.29-.36h-.64c-.35.08-.93.24-1.29.36l-1.07.35a2.72,2.72,0,0,1-.92.16l-.95-.18-1.43-.27-.68-.13h0s-.21.24-.45.54l-.94,1.18c-.24.3-.61.8-.82,1.12l-.66,1a9.07,9.07,0,0,0-.51.82,3.1,3.1,0,0,0-.12.8l0,.14.07.25c.18.23.55.65.81.92l2.79,3a1.16,1.16,0,0,1,.21,1.14l-.36.85a2,2,0,0,0,0,1.29l0,.11a2.63,2.63,0,0,0,.81,1.13l.34.28a1.2,1.2,0,0,0,1.16.14l1.38-.66a5.73,5.73,0,0,0,1.14-.76l1.23-1.11a.54.54,0,0,0,0-.78l-2.91-2a.79.79,0,0,1-.25-1l1-1.92a1.41,1.41,0,0,0,.14-1,1.65,1.65,0,0,0-.84-.67l-3.39-1.28c-.36-.13-.34-.27,0-.31l1.84-.17a4.49,4.49,0,0,1,1.36.12l1.57.44a.78.78,0,0,1,.54.87l-.68,3.73a3,3,0,0,0-.07.86c0,.1.36.24.73.32l.82.17a3.76,3.76,0,0,0,1.35,0l.7-.16c.37-.08.7-.23.73-.33a3,3,0,0,0-.07-.86L158.58,19a.78.78,0,0,1,.54-.87l1.56-.44a4.48,4.48,0,0,1,1.36-.12l1.84.17c.38,0,.4.18,0,.31l-3.39,1.28a1.65,1.65,0,0,0-.83.67,1.41,1.41,0,0,0,.14,1l1,1.92a.79.79,0,0,1-.25,1l-2.91,2a.54.54,0,0,0,0,.78l1.23,1.1a5.73,5.73,0,0,0,1.14.76l1.38.66a1.2,1.2,0,0,0,1.16-.14l.34-.28a2.63,2.63,0,0,0,.81-1.13l0-.11a2,2,0,0,0,0-1.29l-.36-.85a1.16,1.16,0,0,1,.2-1.14l2.79-3c.26-.28.63-.69.81-.92Z"/><line class="cls-3" x1="127.1" x2="127.1" y2="48.61"/><rect class="cls-2" x="0.5" y="12.5" width="24.23" height="24.23" rx="2.93" ry="2.93"/><circle class="cls-1" cx="6.77" cy="18.9" r="1.66"/><circle class="cls-1" cx="6.77" cy="22.78" r="1.66"/><circle class="cls-1" cx="6.77" cy="26.66" r="1.66"/><circle class="cls-1" cx="6.77" cy="30.54" r="1.66"/><circle class="cls-1" cx="10.7" cy="18.9" r="1.66"/><circle class="cls-1" cx="10.7" cy="30.54" r="1.66"/><circle class="cls-1" cx="14.64" cy="18.9" r="1.66"/><circle class="cls-1" cx="14.64" cy="30.54" r="1.66"/><circle class="cls-1" cx="18.57" cy="18.9" r="1.66"/><circle class="cls-1" cx="18.57" cy="22.72" r="0.77"/><circle class="cls-1" cx="18.57" cy="26.66" r="0.77"/><circle class="cls-1" cx="14.71" cy="22.72" r="0.77"/><circle class="cls-1" cx="14.71" cy="26.66" r="0.77"/><circle class="cls-1" cx="10.85" cy="22.72" r="0.77"/><circle class="cls-1" cx="10.85" cy="26.66" r="0.77"/><circle class="cls-1" cx="18.57" cy="30.54" r="1.66"/><path class="cls-1" d="M33.9,19.45a5.39,5.39,0,0,1,4-1.62A5.42,5.42,0,0,1,42.72,20a4.74,4.74,0,0,1,.9,2.45H40.87A3.74,3.74,0,0,0,40.2,21a3,3,0,0,0-4.48.35,5.91,5.91,0,0,0-.84,3.42,5.18,5.18,0,0,0,.89,3.31A2.79,2.79,0,0,0,38,29.21a2.56,2.56,0,0,0,2.15-.94,4.15,4.15,0,0,0,.68-1.52h2.72a5.92,5.92,0,0,1-1.8,3.49,5.23,5.23,0,0,1-3.71,1.35,5.56,5.56,0,0,1-4.4-1.82,7.33,7.33,0,0,1-1.6-5A7.27,7.27,0,0,1,33.9,19.45Z"/><path class="cls-1" d="M52.59,30a4.51,4.51,0,0,1-3.73,1.52A4.51,4.51,0,0,1,45.14,30a6,6,0,0,1,0-7.3,4.48,4.48,0,0,1,3.73-1.54,4.48,4.48,0,0,1,3.73,1.54,6,6,0,0,1,0,7.3Zm-2-1.4a3.69,3.69,0,0,0,.6-2.25,3.67,3.67,0,0,0-.6-2.25,2.25,2.25,0,0,0-3.42,0,3.65,3.65,0,0,0-.6,2.25,3.67,3.67,0,0,0,.6,2.25,2.24,2.24,0,0,0,3.42,0Z"/><rect class="cls-1" x="54.7" y="17.99" width="2.45" height="2.34" rx="1.17" ry="1.17"/><rect class="cls-1" x="54.64" y="17.94" width="2.56" height="2.46" rx="1.23" ry="1.23"/><rect class="cls-1" x="54.57" y="21.5" width="2.57" height="9.72"/><path class="cls-1" d="M66.32,22.05a3.22,3.22,0,0,1,1,2.62v6.54h-2.6V25.3a2.71,2.71,0,0,0-.2-1.18,1.42,1.42,0,0,0-1.41-.75,1.75,1.75,0,0,0-1.76,1.1A3.81,3.81,0,0,0,61.06,26v5.26H58.52v-9.7H61v1.42a4.31,4.31,0,0,1,.92-1.08,3.19,3.19,0,0,1,2-.59A3.71,3.71,0,0,1,66.32,22.05Z"/><path class="cls-1" d="M76.43,18.36A4.33,4.33,0,0,1,78.66,20a5.86,5.86,0,0,1,.93,2.12,10.21,10.21,0,0,1,.25,2.17,8.74,8.74,0,0,1-1.05,4.44,4.74,4.74,0,0,1-4.4,2.45H68.74V18.07H74.4A6.9,6.9,0,0,1,76.43,18.36Zm-5,2v8.57h2.53A2.73,2.73,0,0,0,76.64,27a6.78,6.78,0,0,0,.42-2.5,6.16,6.16,0,0,0-.63-3.08,2.65,2.65,0,0,0-2.5-1.07Z"/><path class="cls-1" d="M87.28,21.69A3.94,3.94,0,0,1,89,23.13a4.79,4.79,0,0,1,.77,2,12.54,12.54,0,0,1,.08,1.93H82.75a2.33,2.33,0,0,0,1,2,2.56,2.56,0,0,0,1.4.37,2,2,0,0,0,1.93-1.11h2.59a3.17,3.17,0,0,1-.94,1.76,4.7,4.7,0,0,1-3.65,1.42,5.28,5.28,0,0,1-3.42-1.2,4.72,4.72,0,0,1-1.48-3.89,5.26,5.26,0,0,1,1.34-3.87A4.67,4.67,0,0,1,85,21.24,5.5,5.5,0,0,1,87.28,21.69Zm-3.79,2.19a2.64,2.64,0,0,0-.67,1.5h4.37a2.12,2.12,0,0,0-.67-1.54,2.22,2.22,0,0,0-1.5-.52A2,2,0,0,0,83.49,23.89Z"/><path class="cls-1" d="M92.7,28.11a1.69,1.69,0,0,0,.35,1,2.36,2.36,0,0,0,1.75.51A2.66,2.66,0,0,0,96,29.36.75.75,0,0,0,96.07,28a14.49,14.49,0,0,0-2.65-.77,5.5,5.5,0,0,1-2.33-1,2.22,2.22,0,0,1-.68-1.75,3,3,0,0,1,1.06-2.31,4.24,4.24,0,0,1,3-1,5.45,5.45,0,0,1,3,.73,3.11,3.11,0,0,1,1.31,2.51H96.19a1.5,1.5,0,0,0-.28-.78,1.74,1.74,0,0,0-1.43-.52,2,2,0,0,0-1.18.26A.74.74,0,0,0,93,24a.66.66,0,0,0,.38.63,16.1,16.1,0,0,0,2.65.7,4.85,4.85,0,0,1,2.27,1.08A2.45,2.45,0,0,1,99,28.27a3,3,0,0,1-1.07,2.36,6.44,6.44,0,0,1-6.7-.05,3.15,3.15,0,0,1-1.09-2.46Z"/><path class="cls-1" d="M99.74,18.12h2.49V25.2l3.2-3.66h3.15l-3.47,3.62,3.61,6.05h-3.08l-2.35-4.15-1,1.09v3.06H99.74Z"/></g></g></svg>