<?xml version="1.0" encoding="utf-8"?>
<svg version="1.1" xmlns="http://www.w3.org/2000/svg" xmlns:xlink="http://www.w3.org/1999/xlink" x="0px" y="0px" viewBox="0 0 1170 640" enable-background="new 0 0 1170 640" xml:space="preserve">
<g>
	<path fill="#0099CC" d="M461.4,1c-0.3,2.1-0.5,3.8,2.6,4c3.2,0.2,6.7,2.6,6.5,5c-0.2,3-1.6,6.6-5.5,8.5c-3.9,1.9-7.7,2.5-11.8,2.9
		c-1.7,0.2-3.7,0.1-5.4,2.1c4.4,1.9,11.9-2.8,12.5,6c1.6-0.9,1.8-2.5,2.6-3.7c1-1.7,2.3-2.9,4.4-2.3c2.2,0.7,3,2.3,2.9,4.6
		c-0.2,4.5-2.1,8.6-2.9,13.1c1-1.5,2.1-3,3-4.6c2-3.1,3.7-6.3,8.4-4.1c2,0.9,3.1-1.2,4.2-2.6c3.6-4.8,9.8-4.9,13.5-0.4
		c1.7,2,0.6,3.7-0.5,5.4c-1.9,3.1-4.2,5.8-5.3,9.4c-1,3.5-4.9,3.3-8.4,4c1.7,2.5,7,0.1,5.9,4.4c-0.8,3.4-4.1,4.5-8.4,3.7
		c1.7,1.8,4.2,1.9,4.2,4.3c0,2.5-1.7,2.9-3.4,3.5c-1.3,0.5-1.5,1.9-1.1,2.9c1.7,4.6-0.4,8.2-2.8,11.9c-3.3,5.1-3,7.9,1.1,12.4
		c1.2,1.3,1.3,2.3-0.5,3c-1,0.4-2.5,0.6-2,2.2c0.5,1.5,1.9,1.8,3.3,1.4c3.4-1,4.1,1.4,3.7,3.5c-0.9,4.1-1,8.3-1.6,13.3
		c-2.4-2.8-1.3-5.5-2.4-7.7c-0.6-1.2-1.1-2.6-2.7-2.6c-0.6,0-1.5,0.7-1.9,1.4c-0.7,1.3-0.1,2.4,0.9,3.5c4,4,3.7,10,7,14.4
		c0.8,1.1-0.3,2.6-2.2,1.7c-0.9-0.5-1.4-2.3-2.7-0.7c-0.7,0.9-0.1,2.1,0.6,2.7c2.6,2.6,3.2,4.6-1,5.9c-0.5,0.2-1.3,1.2-1.2,1.5
		c2.7,4.8-0.9,6.9-3.9,9.3c-0.5,0.4-0.2,1.9-0.4,2.8c-1,5.9-0.5,11.6,1.2,17.2c0.5,1.5,2,3.9-1.5,4.6c-2.9,0.6-5.3,0.8-6.4-2.5
		c-0.4-1-0.2-2.4-1.8-3.1c-1.1,1.9-2.2,3.8-3.6,6c1,0.1,1.6,0.2,2.3,0.3c3.1,0.3,7.3,0.5,8.5,3c1.2,2.4-3.4,3.8-4.6,6.3
		c-2.3,4.8-6.4,5.5-10.9,6.1c-4.6,0.6-9.1,1.6-13.5,3.2c-3.6,1.4-6.2,3.3-7.7,7.1c-1.7,4.5-6.2,6.7-9.5,9.8
		c-2.7,2.5-2.9-0.7-3.5-2.9c-0.9,3.2-3.9,4.1-5.2,6.7c-1.2,2.4-2.4,4.7-2.1,7.4c0,0.3,0.1,0.7,0,1c-2.8,6.9-5.3,13.9-6.8,21.3
		c-0.6,3-4.6,1.9-6.3-0.5c-1.6-2.2-3.1-3.2-5.8-2.5c-2,0.6-2.8-0.6-3.8-2.2c-7.8-12-13-24.9-14.3-39.2c-0.4-4.4-0.6-8.9,5.2-10.9
		c3.1-1,1.7-4.7,2.2-7.1c0.4-1.8-1.3-2.8-3.1-3.3c-0.8-0.2-1.6-0.4-2.4-0.7c-2.6-1-4.7-3.5-3.8-5.6c1.2-2.9,3.5,0.1,5.4,0.5
		c0.6,0.1,1.2,0.3,1.9,0.5c-0.2-5.7-2.5-7.6-7.8-6.8c-2.7,0.4-2.9-1.1-2.6-3.4c0.6-5.4,0.1-10.8-1.5-16c-0.6-1.9-1.5-3.5-0.9-5.6
		c0.6-2-0.5-3.5-1.5-5c-2-3.1-4.1-5.9-4.5-10.1c-0.5-5.3-11.5-9.1-17.3-6.7c-6.1,2.5-9.9,1.2-13-4.5c-0.6-1.1-1.2-1.9-2-2.7
		c-1.4-1.3-3.5-2.5-2.5-4.9c0.9-2.3,3.3-2.7,5.4-2.8c2.7-0.1,5.2-0.3,6.8-3.8c-7.1,5.2-10.4-1.7-14.7-4.1c-4.2-2.3-3.6-7.2,0.1-10.3
		c2.4-2,5.8-3,7.2-6.4c0.3-0.8,2.3-1.2,3.6-1.3c5.3-0.7,7.3-3.1,7.4-8.6c0-0.8-0.1-1.7,0.3-2.4c1.8-3.2,0.8-3.8-2.6-3.5
		c-3.7,0.3-4.5-2.5-2.7-4.9c3.8-5,6.1-11.5,12.6-14.2c1.5-0.6,1.6-1.9,1.5-3.3c0-2.1,0.2-4.3,0.3-6.4c0.1-1,0.3-2.1,1.3-2.5
		c1.3-0.5,2.3,0.1,3,1.2c1.2,1.8,2.1,3.9,4.9,3.3c0.8-1.3-0.3-2.1-1-2.9c-3.2-4-2.7-5.8,2.1-7.2c2.2-0.6,4.4-1.3,6.6-2
		c3.3-1.1,4.4,0.2,3.9,3.3c-0.3,2.1-0.9,4.2,0.8,6.5c1.9-2.6,1.3-9.4,7.2-4c1.2-2.8-0.8-4.3-0.8-6.3c0-2.3,0.3-4.4,3-4.9
		c2.7-0.5,3.9,0.8,4.3,3.4c0.6,4.3,4.3,6,7.6,8.5c0.6-2.9,0.1-4.9-1.9-7.1c-4.4-4.8-3.7-6.5,2.5-8.7c-0.5-2.4-4.3-2.1-4.1-5
		c0.2-2.8,3-2.7,4.5-4.1C418.4,1,439.9,1,461.4,1z"/>
	<path fill="#0099CC" d="M329.5,1c1.9,1.2,4,1.4,6.1,1.8c1.3,0.2,2.9,0.3,3,2c0.2,3.2,1.4,1.9,2.6,0.7c2.1-1.9,4.2-1.1,5.5,0.8
		c1.8,2.9,3.4,5.7,6.5,7.6c2.3,1.5,2.5,3.9,1.1,6.6c-4.6,9-7.3,10.8-17.6,11.5c1.9,1.7,3.6,3.9,6.7,1.8c0.7-0.4,1.7-0.2,2,0.8
		c0.4,1.2-0.2,2.3-0.9,3.2c-4.9,6.6-10,13.1-15.8,18.9c-0.6,0.6-1.9,1.3-1.8,1.5c1.6,4.6-2.2,5.2-4.6,7.5c-3.1,2.8-5.6,4-9.4,2.2
		c0,2.1,1.3,2.3,2.3,2.7c2.7,0.9,4.5,2,1.6,4.7c-0.5,0.5-0.9,0.8-0.8,1.6c1.4,8,0.7,9.7-5.8,14.6c-1.3,1-1.4,2.1-1.4,3.5
		c0,1.7-0.4,3.2-2,4.3c-2.2,1.6-2.1,3.1,0.2,4.6c2.2,1.4,1.8,2.9,0.2,4.4c-0.6,0.6-1.3,1-1.8,1.7c-2.4,3-4.4,5-7.4,0.2
		c-2.2-3.5-5.5-1.8-7.5,0.5c-1.2,1.3-2.2,1.6-3.2,1c-5.8-3.8-10.1-0.9-14.5,2.8c5.4,5.8,11.3,6.3,18.3,2.8c5-2.5,9.3-1.4,11.7,2.7
		c1.9,3.2,2.8,6.7-0.1,10.1c-0.9,1.1-1.9,1.9-3.4,1.7c-8.4-1.4-16.9-0.2-25.4-1.1c-4.7-0.5-7.5-3.5-7.3-8.3c0.1-2.4-0.5-4.6-0.7-6.8
		c-0.3-2.7-2.4-4.2-4.4-3.7c-4,0.9-4.7-2.1-6.1-4.3c-1.1-1.7-0.5-3.7,0.1-5.2c0.8-1.8,2.6-0.4,4-0.3c5.9,0.5,10.3,4.3,15.8,6.8
		c0.8-3.1,0.7-7.2,5.2-8.2c0.7-0.1,0.4-1.1,0.3-1.7c-1.7-7.3-1.4-7.7,5.8-6c-0.4-2.5,0.4-5.1-3.7-4.9c-2.2,0.1-2-1.8-1.9-3.3
		c0.1-1.4,1.2-2.8-0.6-5.1c-0.8,6.3-4.4,9-9.9,8.3c-3.9-0.5-6.4-4.4-6.4-7.3c0-1.9-2-7,4.9-7.6c-4.8-1.2-9.6,0.6-9.3-5.8
		c0.2-3.5-2.7-6.9-2.6-10.8c0.1-5.3,1-10.4,4.4-14.8c0.3-0.4,0.9-0.9,0.8-1.2c-0.4-1.7-1.2-3.6,1.6-3.8c2.6-0.2,4.3,1.5,5.5,3.6
		c0.3,0.6,0.4,1.2,0.7,1.8c1.6,3.7,2.2,7.7,7,9.6c3.2,1.2,4.7,5.2,4.9,9c0.1,2.2,0.5,4.3,3.8,5.7c-1.2-1.5-2.1-2.2-2.3-3.1
		c-0.7-2.7-1.7-6.1,0.3-7.9c2.5-2.3,5.3,0.3,7.3,2c2.1,1.8,3.7,4.4,5.8,7.1c0.4-2.9-1.4-4.2-2.5-5.6c-2.7-3-2.6-4.8,1.7-5.5
		c1.9-0.3,3.5-0.9,4.5-3.6c-5.9,1.6-11.5,2.2-17.1,1.4c-0.8-0.1-1.8,0-2.4-0.4c-1.7-1.1-3.1-2.7-3.3-4.7c-0.4-2.8,3.2-0.9,3.8-2.7
		c-0.3-0.2-0.6-0.6-0.7-0.5c-6.2,2.1-6.6-2.5-7.4-6.4c-0.2-1.1,1.1-2.8-1.4-2.7c-1.4,0-3.3,0.5-3.4-1.7c-0.1-2,0.8-4.5,2.5-4.9
		c2.5-0.6,4-1.8,5.1-3.9c0.6-1.1,1.8-1.5,3-1.2c1.8,0.5,2.5-0.1,3.1-1.9c1.1-3.5,2.6-6.6,7.1-2.9c0.9,0.7,2.6,1.9,4.7,2
		c-1.4-2.5-2.5-5.1-1-7.3c1.2-1.8,2.6,1.4,4.6,0.6c-1.7-2.4-2.3-4.3,0.2-7.1c2.6-2.9,4.3-2,6.8-0.9c4.1,1.8,2.5-2.4,3.8-3.6
		C315.6,1,322.5,1,329.5,1z"/>
	<path fill="#0099CC" d="M640.3,284.6c3.9-0.7,6.7-2.6,7.5-6.8c0.5-2.7,2.5-3.5,4.9-4.2c7.8-2.2,7.8-2.3,5.1-10.1
		c-2.2-6.3,2.8-8.3,7.1-11.6c0.2,3.8,1.7,7-0.1,10.3c6.2-2,6.2-2.1,3.7-7.6c-0.7-1.6-1.4-3.4-1.6-5.2c-0.6-4.2-2.4-4.3-5.1-1.6
		c-1.4,1.4-2.6,3.1-4.8,3.2c-3.2,0.2-6-1.1-6.4-4.2c-0.7-5.2-1.4-10.4-1.2-15.8c0.2-5.3,5.1-6.9,8.1-9.1c4.8-3.5,7.5-8.2,10.1-13
		c3-5.6,5.1-11.8,9-17c0.7-1,0.8-2.4,1.3-3.7c-2.8-1.1-4,2.2-7.2,1.9c2.7-3.1,4.6-6.4,7.5-8.5c5.4-3.9,11.2-7.6,17.2-10.4
		c3.5-1.6,6.8-2.8,9.1-6c0.3-0.4,1.5-0.4,2.3-0.3c5.1,0.7,10.9-1.8,14.9,3.8c1.8,2.6-0.9,3.3-2,4.9c8.5-0.8,13.5,5.2,19.9,8
		c3.5,1.5,6.3,4.8,9.2,7.5c2.5,2.3,4.8,4.8,2.7,8.6c-2.4,4.2-6.9,6.3-10.8,5c-1.9-0.6-3.7-1.5-5.5-2.2c-1.7-0.6-3.3-1.1-5.3-1.4
		c2.6,2.9,3.6,5.9,3.2,9.8c-0.3,3.8,3,5.9,6.7,7.3c-0.1-2.5-3.5-3.8-1.8-6.3c0.7-1,1.6-1,2.6-0.5c2.1,1,4.1,2.1,6.5,2.1
		c-0.3-7.5,1.5-9.5,10-11.2c1.5-0.3,2.3-1.6,1.7-2.4c-2.9-4.3,1.2-9.6-2.8-13.6c2.3-0.8,4,0,5.7,0.4c4,1,5,3.8,2.3,6.9
		c-1.3,1.5-1.4,2.6,0,3.8c1.4,1.2,3.2,1,3.8-0.6c2.4-6.9,9.6-7.6,14.4-11.4c1.8-1.4,4.4-2.1,5.6,1.2c0.7,2.2,1.6,0.7,2.5,0.3
		c2.8-1.1,5.6-2.1,8.3-3.1c1-0.4,1.7-0.6,2.7,0.2c0.7,0.5,0.1,3.1,2.1,1.5c1.2-0.9,1.3-2.2,0.9-3.6c-0.5-2.3-2.3-3.5-3.8-5
		c-1.2-1.2-2.4-3.1-1.3-4.4c1.6-1.8,3.1,0.3,3.9,1.4c1.6,2,3.6,2.5,6,2.8c6.2,0.8,10.1,5.9,15.3,8.6c0.8,0.4,1.1,1.7,2.4,1.3
		c0.9-1,0.4-2.2-0.3-2.7c-4.4-3.8-3.9-9.3-5-14.2c-0.4-1.7-0.3-3.3,0.6-4.2c5.4-5.1,4.7-12.8,8.5-18.6c0.7-1.1,0.9-2.7,2.5-2.6
		c1.7,0.1,2.7,1.2,2.7,3c0,0.2-0.2,0.4-0.2,0.4c5.7,4.2,2.1,10.1,2.8,15.4c1.2-4.8,7.6-6.8,6-13.2c3.4,1.1,3.1,3.4,3.1,5.4
		c0.1,2.8,2.2,3.4,3.5,2.1c4.9-4.8,8.5-2.3,12.2,1.4c0.4,0.4,1.1,0.5,1.9,0.8c0.9-2.4-1.2-2.9-1.9-4.2c-4.5-8-4-13,4.6-14.1
		c0.7-0.1,1.3-0.2,2-0.3c2.4-0.3,5.3,0.8,7.3-0.7c2.7-2.1-1.4-3.5-1.4-5.8c0.1-4,1.6-6.5,4.6-8.4c3.8-2.4,7.7-4.5,11.7-6.5
		c3.2-1.7,6-3.8,9.8-4.6c2.4-0.5,3.4,2.4,6.1,1.1c3.1-1.4,4.3-5.6,8.5-5.4c1,0.1,0.1-2,0.2-3.1c0.3-6.1,6.9-11.1,12.4-9.7
		c4.1,1,1.7,3.4,2,5.5c0.3,1.9,5,0.3,4.4,4c-0.2,1-0.9,2-1.5,3.3c11.2-6.7,21.5,3.8,20.2,13.3c-0.2,1.7-0.7,3.3-1.7,4.6
		c-1.7,2-4.5,3.6-0.1,5.8c1.1,0.6,0.1,1.7-0.3,2.6c-1.4,3.6,0.4,5.6,4.4,5.4c4.6-0.2,9-0.4,12.4,3.9c1.5,1.9,4.6,1.5,7.1,1.6
		c3.4,0.1,3.4-2.3,3.8-4.6c0.3-1.9,1.7-2.4,3.3-2.1c3.5,0.8,7.2,1.3,10.5,2.8c3.7,1.7,4.6,5.2,4.3,9.2c-0.2,3.1-1.6,6.1-0.4,9.3
		c0.9,2.2,2.3,4,4.4,4.3c2.2,0.3,1.8-2.4,2.4-3.7c1.2-2.8,2.2-5.2,5.3-1.6c0.7,0.8,1.7,1.2,2.7,0.6c2.8-1.9,5.7-0.7,8.6-0.3
		c2.8,0.4,5.5,0.5,4.2-4c-0.7-2.7,4.1-7.1,7.2-7c7.3,0,13.6,3.7,20.5,5.1c1.5,0.3,2.3,1.7,3,3.1c2.8,4.9,6.4,8.4,12.6,7.9
		c1.8-0.1,3.6-0.1,5.5-0.1c6.7,0,7.8,0.8,9,7.2c0.6,3.3,2.6,4.6,5.6,4c3-0.6,5.6-0.7,8.6,0.5c2.4,1,5.3,0.6,7.4-1.4
		c1.2-1.1,2.3-2.1,3.9-1c1.6,1.1,0.6,2.3,0,3.4c-0.8,1.5-0.1,2.5,1.1,3.4c0.9,0.6,1.9,0.6,2.7-0.1c1.2-1.1,0-2-0.3-3
		c-1.3-3.7,0.1-5.5,3.9-4.7c3,0.6,5.8,0.8,8.8,0.5c4.7-0.5,8,3.1,11.4,5.2c6.5,4.1,12.2,9.5,18,14.5c1.6,1.4,3.2,2.5,5,3
		c2.9,0.8,4.8,2.7,7,4.5c2.2,1.8,2.3,3.4,0,5.2c-2.6,2-4.9,4.4-6.2,7.5c-0.9,2.1-2.5,2.7-4.3,0.9c-1.8-1.9-4.5-2.5-6.1-4.9
		c-2-3-5.4-2-8.1-0.8c-2.2,1-3.7,3.2-6.2,3.9c-1.9,0.5-0.3,1.3-0.3,2.1c0.3,3.2,2,5.9,2.8,8.9c0.5,1.8,1.1,4.4-2.5,3.7
		c-5.7-1.2-9.8,2.1-13.9,4.9c-1.9,1.3-3.4,3.1-5,4.8c-2.4,2.3-4,3.6-8.4,2.4c-4.2-1.2-10.1,1.1-14.2,3.7c-2.2,1.4-4,5.7-2.5,10.1
		c1.1,3.1,4.3,7.9-1.7,10.4c1.4,5.4-4.2,7-6.3,10.4c-2.3,4-4,8.8-8.1,11.8c-3.1,2.2-5.1,5.6-6.9,8.9c-5,8.7-13,13.9-21.4,18.5
		c-3.3,1.8-4.3,5.5-7.9,7c-2.6,1.1-4.6,2.5-8.1,1.1c5.5,8.5-0.8,15.8-1.2,23.6c-0.1,1.1-1.1,2.8-2,3.2c-4.5,1.9-9.1,3.8-13.8,4.9
		c-3.8,0.9-6.9,2.4-9.4,5.1c-1.4,1.4-2.2,4.9-4.5,2.4c-1.6-1.7-4-5.3-1.1-7.8c4.2-3.5,7.1-9.7,14.2-8.2c3.1-4.6,9.4-5.5,12-10.3
		c1.7-3.1,1.7-7,1.2-10.6c-0.3-3,0.2-5.4,3-7.2c2.8-1.8,2-5.2,2.1-7.7c0.4-8.3,0.1-16.7,0.1-25.5c-1.9,1.2-2,2.9-2.1,4.4
		c-0.6,12.5-9.1,20.7-16.3,29.6c-1.3,1.6-3.5,2.9-5.8,2.1c-3.3-1.2-5.3,0.8-6.7,2.8c-1.9,2.8-3.3,6-6.5,7.9c-1.5,0.9-0.7,2.3,0,3.5
		c1,1.7,2.2,3.3,3.1,5.1c2.4,5.2-0.6,10.6-6.2,11.5c-2.2,0.3-2.7-0.9-2.6-2.5c0.1-2,0-3.9-0.1-5.9c-0.1-2,0.2-3.5-2.2-4.1
		c-1-0.3-1.5-1.3-1.3-2.4c1.1-5.5-2.6-4.1-5.5-3.7c-1.5,0.2-2.2,3.1-4.2,1.5c-1.9-1.6,0.6-3.3,0.4-5.4c-4,1-5.8,5.2-9.6,6.3
		c-0.6,0.2-0.4,1.3,0.2,1.7c1.4,0.8,2.2,2.6,4.2,2.3c1-0.1,2-0.9,2.9-0.6c1.8,0.5,4.6-0.2,5.1,2c0.5,2.1-2.4,1.7-3.5,2.7
		c-2.9,2.3-6.4,3.8-2.6,8.9c3.1,4.1,5.6,9.2,4.9,14.9c-0.2,1.3-0.2,2.8-0.9,3.8c-6.2,9.7-12.5,19.2-25.3,21.3
		c-2.8,0.5-7.2,0.3-5,5.9c0.5,1.4-1.3,3.3-3.1,4c-1.2,0.5-2.4,0.2-3.2-0.7c-1.4-1.7-0.2-3.1,0.8-4.4c0.8-1,1.3-2,0.4-3.1
		c-0.9-1-2.1-0.8-3.2-0.5c-4.5,1.3-6.3,5.9-3.7,9.6c1.9,2.7,4.4,5,6.1,7.7c3.6,5.8,1.9,11.4-4.2,14.1c-2.1,0.9-3.1,2.9-4.9,4.1
		c-1.8,1.1-3.1,1.6-3.3-1.1c-0.3-3.2-4-3-5.2-5.6c-1-2.3-4.7-5-6-3.4c-1.7,2.1-4.7,5.3-2,9.3c1.8,2.6,3.2,5.2,6.1,6.8
		c5.7,3.1,4.1,9.7,6.5,14.4c1.1,2.1-2.1,0.7-3.2,1.3c2.3,2.9,3.1,7.2,8.2,7.3c1,0,4,2.4,1,5.3c-2.7,2.7-1.5,6,2.3,6.7
		c12.9,2.3,25.5,7.3,38.9,6.6c4.8-0.2,9.5-0.7,14.3-0.4c1.2,0.1,2.6-0.2,2.8,1.3c0.2,1.1-1,1.5-1.9,2c-1.3,0.7-2.7,1.3-4,2
		c-1.1,0.6-2.3,2-3.5,0.7c-1.2-1.2,0.5-2.3,0.7-3.9c-2.8,0.3-5.6,0.9-8.3,0.8c-2.7-0.1,0.4,4.4-3.2,3.4c-2-0.6-3.2-3-4.9-2.9
		c-6.3,0.3-12.3-1.6-18.5-1.8c-5.4-0.1-12.1-0.7-15.8-3.9c-5.5-4.7-12.2-8.4-15.9-15.1c-3.4-6.2-7.4-12-13-16.6
		c-1.2-0.9-2.5-2.2-1.7-3.8c0.9-1.9,2.6-0.4,4-0.4c1.7,0,3,0.8,4.3,2.1c2.3,2.3,4.9,4.3,7.7,6.2c-2-5-1.5-11.1-6.6-14.6
		c-1.8-1.3-1.8-2.9-1.4-4.8c1.2-5.6,0.7-11.1-1.5-16.5c-1-2.4-1.7-3.2-4.2-1.9c-3.8,2-5.6,0.8-5-3.7c0.5-3.3-2.5-5.2-3.5-7.9
		c-2.5-6.4-6.6-7.1-12.4-4.6c-1,0.4-2.1,0.5-2.9,1.5c-4.6,6.2-11.6,9.9-17.1,15.1c-1.8,1.7-2.3,3.1-2.3,5.4c0.1,5-1.2,9.8-4.2,13.9
		c-2.8,3.8-6.3,3.7-7.8-0.6c-3.6-10.3-10.3-19.7-10.3-31.2c0-1.9-0.3-2.8-2.6-2c-3.5,1.1-6-1-7.3-3.7c-3.9-8-10.1-10.4-18.6-9
		c-5.3,0.9-10.8,0.4-15.6-3.1c-0.9,3.9,1.4,5.4,4.4,6.7c5.4,2.3,5.4,3.4,2.3,8.4c-4,6.5-9.5,10.3-16.2,14.1
		c-7.8,4.4-16.1,7.1-24.2,10.6c-1.3,0.6-3.3,0.3-2.7,2.6c0.5,1.9,2.1,2.6,3.9,2.3c4.4-0.7,8.8-1.6,13.1-2.6c3.8-0.9,5.9,0.7,4.3,3.9
		c-4.4,8.6-7.6,18.2-16.5,23.6c-5.4,3.3-8.9,8.3-13,12.8c-5.2,5.7-4.8,12.6-1.9,19c2.1,4.8,1.8,9.7,2.2,14.5
		c0.3,3.7-3.2,5.9-6.3,7.6c-1.7,1-3.5,1.8-5,3.1c-3.6,3.2-7,5.7-4,11.8c1.5,2.9,0.4,7.6-4.1,9.5c-1.3,0.5-2.2,1.2-2.5,2.8
		c-1.3,8.6-7.2,14.2-12.8,20c-3.8,3.9-8.7,5.9-14.3,5.3c-2.4-0.3-4.5,1-6.7,1.7c-5.4,1.5-9.2-1.6-9.3-7.2c-0.1-5.1-2.7-9.5-5.4-13.5
		c-2.1-3.1-3.7-6.3-4-10c-0.6-6.9-3.3-13-6.7-18.9c-2.8-4.9-1.5-10,0.8-14.2c2.5-4.5,3.4-8.4,1.9-13.4c-1.6-5.6-2.7-11.3-7.1-15.4
		c-4-3.7-5.7-7.4-3.8-13.1c1.9-5.7-0.8-8.6-6.9-8.5c-1.8,0-3.3-0.3-4-2.1c-1.8-4.4-5.7-5.2-9-3.2c-8,4.8-17.3,1.4-25.3,5.1
		c-0.7,0.3-2.1,0.1-2.8-0.4c-5.5-3.9-12.9-5.6-15.5-13c-0.9-2.6-3.2-4.2-5.2-5.8c-4.7-3.7-4.9-8.1-3.4-13.4c1-3.5,1.6-7.2,0.3-11.1
		c-1.6-4.9-0.4-9.6,2.5-14.1c3.9-5.9,6.9-12.4,13.9-15.4c1.7-0.7,1.8-2.6,1.9-4.3c0.5-4.7,2.5-8.5,6.7-10.9c2.8-1.6,3.9-4,3.9-7
		c0-2-0.6-4.6-3-4.4c-7.1,0.3-5.6-5.1-5.4-8.5c0.2-4.3,0.9-8.4,0.1-12.8c-0.7-3.6,2.4-4.1,4.8-3.7c3.5,0.5,6.9,0.5,10.4,0.5
		c2,0,4.9,1,5.7-1.6c0.8-2.8,2.1-6.1-0.2-9c-1.6-2.1-3.1-4.3-5.8-5.2c-1.7-0.6-3.7-1.9-3.3-3.8c0.5-1.9,3.1-1.4,4.7-2
		c3.8-1.4,7.5-2.9,11.2-4.6c1.3-0.6,1.7-1.9,1.8-3.3C639.4,285.4,639.8,285,640.3,284.6z M1041.5,294.5c-5.9-0.5-7.4,1.1-5.7,5.5
		c1,2.8,1,2.8-1.1,5.1c-0.3,0.3-0.3,0.9-0.3,1.4c0,4.6,4.5,7.7,8.6,5.5c10.7-5.6,20.2-12.1,26.3-23.5c3.1-5.8,3-10.1,1.8-15.7
		c-1.3-6.2-1.2-12.1,1.8-18.2c1.8-3.7,5.6-4.3,7.6-7.3c2.9-4.2,6.6-7.8,10-11.6c0.7-0.8,2.2-1.4,1.2-2.7c-1-1.2-2.1-0.1-3,0.6
		c-1,0.7-1.8,1.4-2.8,2.1c-2.2,1.6-4.1,1.3-4.1-1.6c-0.1-5-4-3.8-5.1-2.3c-2.7,3.6-9.9,5-7,11.9c0.3,0.8-0.2,1.1-0.8,1.5
		c-2.9,2.1-8.5,1.7-11.4-0.6c-1.2-1-2.9-2.4-4.4-0.8c-1.9,1.9-4,0.9-6,1.2c-5.6,0.8-11.9-0.6-16.3,4c-5.4,5.7-9.4,12.6-15.6,17.5
		c4.4,4.3,11.1,1.6,14.9,6.2c0.5,0.6,1.6,0.1,2.1-0.6c0.7-0.9-0.2-3.2,1.9-2.7c2,0.4,1.8,2.5,2.1,4.1
		C1037.3,280.6,1036.9,288,1041.5,294.5z M701.3,345c2.2-1.1,4-0.6,5.8-0.3c2.3,0.4,3.9-0.9,4.9-2.6c1.1-1.8-0.3-3.8-1.4-4.3
		c-3.8-1.9-3.1-4.7-2.6-7.8c0.4-3.1-1.7-4.1-4-2.7c-2.1,1.2-5.9,2.6-1.3,6.1c3.9,3-1.6,4.3-1.9,6.7c-0.3,1.8-1.6,2.4-2.8,1.6
		c-2.6-1.6-4.9-3.5-6-6.7c-1.5-4.2-1.1-9.4-3.6-12.4c-4-4.9-10.2-7.7-14.6-12.5c-0.5-0.6-1.3-2-2.4-0.8c-1,1.1-0.9,2.4,0,3.6
		c3.4,4.7,7.1,8.9,12.2,11.8c1.3,0.7,2.5,1.7,3.4,2.8c0.8,1,0.8,2.8-1,2.2c-2.9-0.9-2.2,0.5-2.5,2.3c-1,6.2-7.2,9.9-11.4,7.1
		c-0.8-0.6-1.9-1-1.8-2.2c0.2-1.6,1.6-1.4,2.7-1.5c2.2-0.2,5.1,0.6,6.1-2.2c1.1-3.1-2-4.1-3.7-5.7c-1-0.9-2-1.8-3.1-2.4
		c-3.8-2.1-7.1-4.7-8.7-9.1c-1-2.8-3.2-2.4-5.3-1.1c-3,1.9-5.9,3.6-9.7,2.3c-1.2-0.4-2.6,0.2-2.8,1.4c-0.6,3.8-3.6,5.1-6.3,7.1
		c-2.2,1.5-4.1,3.8-3.7,7.1c0.2,2-0.9,3.6-2.3,4.7c-2.4,1.9-4.5,4.4-8.3,3.5c-1.3-0.3-3.8,0.1-3.7,2.2c0.1,2.1,2.4,1.9,4,2
		c2.4,0.2,4.6-0.2,6.7-1.5c6.5-3.9,13.5-4.9,21-4.5c2.1,0.1,4.3,0,6.4-0.3c5.8-0.8,9,2.3,7,8c-1.7,4.8,0.8,6.3,4.3,7.2
		c3.4,0.9,6.4,1.6,9,4.6c2,2.3,5.7,2.6,8.8,2.7c2.5,0.1,1.9-3,2.9-4.7c2-3.4,5.1-3.3,7.7-1.6c9,5.7,19.2,4,29,4.9
		c1.2,0.1,2.4-0.5,2.9-1.6c1.9-4.5,4.6-8.8,3.9-14.1c-0.2-1.2-0.4-3-1.7-2.3c-3.7,2-7.3,0.4-10.9,0.2c-4.7-0.2-9.2,1.2-12.8,4.5
		C706.4,349.5,704,348.2,701.3,345z M664.2,267.9c1.7,1.1,2.7,2.3,3.8,1.8c5.2-2.3,11.5,2.1,16.4-2.5c0.5-0.5,2.1-0.3,2.8,0.2
		c3.9,2.3,5.6-0.9,5.9-3.3c0.6-4.3,1.4-8.3,3-12.4c1-2.5-0.6-5.7,3.6-7.1c2.9-1,5.5-2.8,8.9-2.5c1.5,0.1,3,0,4.4-0.3
		c1-0.2,2.4-0.7,2.2-2.2c-0.2-1.2-1.5-1.1-2.5-1.1c-3.2-0.2-6.2,0.3-9.1,1.9c-3,1.6-5.2,1.4-7.3-2.1c-3.2-5.3-2.9-14.9,1.5-19.6
		c2.3-2.4,4.4-4.9,6.2-7.7c1.5-2.2,1.7-4.1-0.6-5.5c-2.1-1.3-4.3-0.5-5.7,1.4c-0.8,1.1-1.7,2.8-1.5,4.1c0.5,4.8-2.4,7.1-5.8,9.5
		c-1.8,1.3-3.7,3.2-4.4,5.2c-1.5,4.2-3.7,8.5,1,12.6c2.9,2.5,1.7,5.8-0.8,7.7c-3.1,2.4-3.6,5.1-3,8.6c0.5,3.1-0.8,5.6-4,6.5
		c-1.5,0.4-2.5,1.6-3.7,2.2C672.2,265.1,669.2,267.9,664.2,267.9z M743.7,324.5c1.3-0.1,2.6-0.1,4-0.3c1.4-0.2,2.6-0.7,3.1-2.1
		c0.5-1.5-0.3-2.5-1.4-3.4c-3.3-2.4-5.8-5.8-9.7-7.5c-1.2-0.5-2.4-1.7-3.6-0.8c-5.2,3.7-7.8,1.1-10.1-3.6c-1.4-2.9-3.4-2.8-5.1,0
		c-1.7,2.8-3.6,5.5-4.7,8.6c-1,2.7-3.1,5.3-0.3,7.6c2.6,2.2,5.8,1.7,8.8-0.1c4-2.4,8.1-2.6,12.2-0.3
		C738.9,324,741.1,324.6,743.7,324.5z M787.4,309c-5.3-7.5-7.2-8.3-11.6-6.1c-7.9,4-9.5,9.2-5.1,16.9c0.8,1.4,1.7,2.9,2.8,4.1
		c1.9,2,2.2,3.8,1,6.5c-2.3,5.1,0.2,9,5.7,9.7c4.1,0.6,5.7-1.3,5.2-5.4c-0.3-2.6-3.1-4.3-2.9-6.6c0.3-5-1.4-9.1-4.6-12.8
		c-0.9-1.1-3.1-2.7-1.6-4.1c1.6-1.6,3.5-3.7,6.3-3.4C783.8,308,785.2,308.5,787.4,309z M755.9,415c-1.3-5.8-1.7-10.1-4.4-14.2
		c-2.3-3.5-6.2-6.3-7-10.5c-1.4-7.2-7.4-11.4-10.2-17.6c-0.4-0.9-1.5-1.4-2.5-0.9c-1.1,0.6-1,1.6-0.6,2.6c0.9,2,1.6,4,2.8,5.7
		c5.2,7.3,6.9,16.2,11.4,23.9C747.9,408.3,751.3,411,755.9,415z M791.1,376.8c-6.4-1.9-12.3-3.9-15.2-10.2c-0.6-1.3-2.1-1.9-3.4-1.1
		c-1.3,0.8-1.1,2.3-0.4,3.5c1.1,2.2,2.6,4.2,4.9,5.4c1.8,0.9,3.6,2.2,3.4,4.4c-0.4,4.6,2.6,3.3,4.8,2.9
		C787.8,381.2,789.1,379,791.1,376.8z"/>
	<path fill="#0099CC" d="M226.2,181.6c1.9-0.4,3.6-0.8,5.2,1.4c3.5,4.8,8.2,7.2,14.4,6.4c4.3-0.6,5.7-2.6,3.3-6.1
		c-2.8-4,1.6-5.8,2.7-8.2c1-2.4,3.5,1,4.7,2.4c1.7,2,4.8,4.4,0.8,7.3c-0.6,0.5-0.4,1.2,0.1,1.8c0.8,1,1.7,0.6,2.6,0.1
		c1.3-0.8,3.2-2.1,2.4-3.3c-1.9-2.8-0.5-6.8-4.7-8.9c-4.9-2.6-2.7-8.5-1.2-11.6c2.9-5.9,2.4-11.4,1.3-17.2c-0.2-1-0.4-2-0.4-2.9
		c0-3.1,0.1-6.4,3.1-8.4c1.7-1.1,11,0.6,12.4,2.1c0.2,0.2,0.4,0.5,0.5,0.8c0.7,1.5-4,11.4-5.7,11.9c-1.2,0.3-3.3-0.4-3,1.5
		c0.5,3-2.6,5.4-0.7,8.6c2.8,4.6,5.2,9.4,5.8,15c0.3,2.4,1.5,5.6,6.1,5.5c3.3-0.1,5.1,3.7,4.4,7.5c-0.3,1.5-0.3,3.5,1.2,3.9
		c1.9,0.5,1.9-1.8,2.5-3.1c1.7-4,3.3-7.9,2.5-12.7c-0.5-2.8-1.7-4.1-3.9-4.8c-4.4-1.4-4.9-1.9-5.6-7.1c0-0.1,0.1-0.4,0-0.4
		c-7-5.4-1.9-12-1.3-17.9c0.5-4.2,5-8.4,8.1-7c4.9,2.1,9.2,1,13.8,1.1c2.8,0.1,5.5,0.4,8.3,0.6c1.3,0.1,2.8,0,3.7,1.2
		c1.2,1.7,3.2,3.8,2.9,5.4c-0.4,2.1-3.4,1.2-5.2,1.6c-2.3,0.5-5.2-0.2-6.2,3.6c2.3-0.4,4.3,1,6.1-1.9c1.4-2.2,7.9-0.1,9.3,2.8
		c1.7,3.6,4,6.4,8.4,6.5c0.6,0,1.6,0.3,1.7,0.8c2.1,5.7,9,7,11.4,12.3c1.1,2.4,3,5.3-1,7.5c-2,1.1-0.6,6,2.1,6.8
		c4,1.2,7.2,2.9,8.9,7c0.6,1.6,3,1.2,4.4,2c2.2,1.3,4,2.9,1,5.2c-2.6,1.9-1.5,5.4-3.8,7.8c-1.9,1.9-2.5,1.6-3.6,0.1
		c-2-2.7-4.9-4.6-6.5-7.8c-0.7,3.8-2.5,7.5,2.5,10.1c2.3,1.2,3.2,4.7,3.5,7.3c0.3,2.4,0.9,4.8,1.3,7.6c-4.3,0.3-6.3-3.1-9.6-4.8
		c0.8,1.3,1.7,2.5,2.5,3.8c0.7,1.3,2.9,2.6,1.4,4.2c-1.3,1.3-3.8,1.1-5.1-0.1c-4.3-3.9-11.5-4.2-13.3-11.4c-1-4.3-4.3-5.3-8.5-3.1
		c-2.8,1.5-5.4,0.6-6.3-2.6c-0.8-2.9-0.3-5.1,3.6-5.4c5.2-0.4,10.3-6.4,10.6-12.1c0.3-4.8-3.3-9.6-8.5-11c-0.9-0.2-1.8-0.5-1.7-1.4
		c0.8-4.2-3.2-6.2-4.3-10.6c-3.7,8.7-9.1,3.1-14.8,2.8c5.1,3.4,7.4,7.2,4.5,12.5c-0.3,0.5,0.1,1.8,0.6,2.3c3.6,3.9,1.5,6.8-1.5,9.6
		c-3,2.8-6,4.7-9.9,1.2c-1.4,3.9-2.6,7.4-4,10.9c-1.2,2.9-2.4,5.9-6,6.8c-0.6,0.2-1.4,0.6-1.6,1.1c-2.9,6.9-10.3,11-12,18.8
		c-0.8,3.7-0.1,6.3,1.8,9.9c3.2,5.9,7.5,8.6,13.4,10.4c1.9,0.6,3.8,2.2,5.2,3.7c2.6,2.7,5.4,4.1,9.2,3.8c2.5-0.2,3.8,0.6,3.9,3.7
		c0.1,4.1,0.4,8.3,3.8,11.4c0.8,0.7,0.8,2.5,2.4,1.9c1.5-0.5,3.2-1.6,2.7-3.1c-2.5-7.3,0.2-12.9,4.4-18.7c2.2-3,0.3-7.1-2.1-10
		c-2-2.4-2.7-4.4-0.1-6.8c1.6-1.5,2.1-3.4,1.1-5.4c-1.5-3.1,0.1-6.5-0.8-9.7c-0.6-2,1.2-3,3.1-2.7c3.1,0.5,6,1.3,9.3,0.6
		c1.6-0.3,2.9,1.3,3.9,2.7c1.5,2.1,3,4.3,5.9,4.9c2.9,0.6,2.4,3.1,2.5,5.2c0.1,1.6-0.7,3.4,0.3,4.9c1.1,1.9,2.8,3.6,5,3.6
		c2,0,3.6-1.7,4.4-3.6c0.8-1.9,0.9-4.2,3.3-6.1c3.4,6.9,8.2,12.7,9.1,20.7c0.3,3.2,3.7,5.3,6.5,7c7.7,4.9,12.3,10.9,9.3,20.7
		c-0.8,2.7,0.5,4.5,3.7,5.1c3.8,0.6,6.8,7.4,4.6,10.5c-2.5,3.5-5.8,0.2-8.5-0.2c-1.2-0.2-3.2-1.5-5.1-1.6c-4.8-0.2-5.6-1.7-3.2-6.2
		c1.2-2.2,2.2-4.4,3.1-6.7c0.3-0.7,0.3-1.8-0.1-2.3c-0.6-0.8-1.7-0.3-2.1,0.4c-2.9,4.1-7.2,4.2-11.5,4c-0.3,2.1,2.4,2,2.2,3.9
		c-4.9,2.8-7.7-7.1-13-2.7c0.5,1.6,1.7,1.3,2.5,1.5c2.6,0.7,4,1.9,2.9,5c-1.3,3.6-0.6,6.2,4,5.6c2.3-0.3,4.3,1.6,6.9,0.1
		c1.1-0.6,2.4,2.1,1.2,3.7c-3.7,4.6-9.2,7-14.5,9c-3.5,1.3-2.4-2.6-2.2-5.4c-3.2,1.7-6.1,3-8.8,4.6c-1.1,0.6-2.7,1.7-2.4,2.9
		c1.4,5.7-3.1,7.2-6.5,8.8c-6.1,2.9-8.5,8.9-8.7,13.9c-0.2,6.3-3.4,9.1-7.4,12.2c-1.2,0.9-2.3,1.9-3.5,2.7c-4.8,3.4-6,7.3-3.1,12.8
		c1.4,2.7,2.6,5.8,1.8,9.1c-0.3,1.2-0.7,2.2-2,2.6c-1.5,0.4-2-0.7-2.6-1.7c-0.9-1.5-2-3.1-2.7-4.7c-1-2.3,0.2-6.1-2.9-6.9
		c-4.2-1.1-8.4-3.1-13-2.1c-0.5,0.1-1.3,0-1.4,0.3c-2.2,5.9-6.3,2.8-9.8,2.1c-6.7-1.4-12.2,2.3-13,9c-0.2,1.6-0.8,3.2-1.2,4.8
		c-2.1,7.1,1,15.1,7,17.8c5,2.3,8.9,0.9,11.3-4.2c1.9-4.1,5.8-3.8,9.3-3.9c1.7,0,2.4,1.4,1.8,3.2c-1,3.1-1.8,6.3-2.8,9.4
		c-1,3.1-0.5,4.9,3.3,4c2-0.5,3.9-0.5,5.9,0.1c3.3,1,5.1,2.9,4.1,6.6c-0.4,1.7-0.7,3.6-0.7,5.4c-0.1,4.8,3.2,7.8,7.9,6.9
		c2.3-0.4,4.8-1.5,6.7,0c4,3.2,5.4,0.3,7-2.6c0.7-1.3,11.3-6.4,11.6-5.8c1.6,5,5-2.1,7.1,1.2c1.7,2.6,4.9,3.5,8.3,3.8
		c1.8,0.1,3.5,0.3,5.4,0.1c3.6-0.5,6.2-0.5,9.5,3c4.1,4.4,8.9,9.4,16.5,9.8c8.8,0.5,13.4,6,13.7,14.5c0.1,1.7,0.6,2,1.8,2.2
		c8.6,1.4,16.1,6.5,25.1,7.2c5.2,0.4,9.5,5,13.9,8c2.9,2,3.1,6.8,0.7,10.5c-1.2,1.8-2.6,3.4-3.9,5.2c-3.1,4.4-6.3,8.3-6,14.6
		c0.3,6.5-3.5,12.2-6.7,17.7c-1,1.8-3,2.9-5,2.9c-3.5,0.1-6.2,1.9-9,3.6c-3.8,2.2-5.6,4.3-6.1,9.4c-0.5,5.3-3.7,11.2-9,14.5
		c-2.4,1.5-4.2,3.2-4.9,5.8c-1,4.1-3.6,5.8-7.6,5.3c-1.9-0.2-3.1-0.1-2.2,2.2c1.9,5.1-1.1,7.6-5,9.5c-1.8,0.8-3.7,1.7-5.6,1.8
		c-2.7,0.1-3.9,1.3-4.3,3.8c-0.5,3-2.1,4.4-5.2,3.8c-0.9-0.2-2.1-0.6-2.5,0.7c-0.4,1.5,0.7,1.9,1.9,2.3c2.7,0.9,2.5,2.4,0.6,3.9
		c-3.7,2.9-3.8,8.3-8,11c-1.6,1.1-0.5,3.1,1,4.1c1.9,1.4,2.7,3.2,1.5,5.1c-2.1,3.4-4.4,6.8-6.8,10c-0.9,1.1-1.9,2.3-1.4,3.5
		c2.3,5.3,1.1,12.6,8.4,15.2c1.1,0.4,2.2,1.2,1.1,2.6c-2.1,2.7-10.2,3.4-13,1.4c-2.5-1.8-4.4-4.4-7.5-5.5c-1.7-0.6-2.7-2.4-2.8-4.3
		c-0.2-2.6-2.5-5.4-2.5-6.8c0.1-6.1-7.4-12.4-0.1-18.4c0.4-0.3,0.6-1.3,0.4-1.8c-0.5-1.2-4.1,0.1-2.6-2.2c1.6-2.4,1.8-5.2,3.7-7.3
		c2.5-2.9,2.5-2.9-0.3-5.1c-1.2-0.9-0.8-2-0.5-3.2c2.7-10.7,2.2-22,6.9-32.3c0.2-0.4,0.3-1,0.2-1.5c-0.7-11.3,2.9-22.1,3.9-33.3
		c0.9-10-1-13.7-10.1-18.6c-3.3-1.8-5.3-4.5-7.3-7.7c-4.1-6.6-5.5-14.8-12.2-20.1c-1.8-1.4-3.4-5.3,0.4-7.6c0.7-0.4,1.7-0.9,1.2-1.8
		c-4-7.6,3-11.3,6-16.1c2.1-3.4,1.9-12.4-1.4-14.8c-1.3-0.9-2.2-0.5-2.9,0.6c-1,1.7-2.5,2.6-4.1,1.7c-5-2.8-10.8-4.5-13.9-10.2
		c-1.5-2.9-3.6-5.5-7.3-6.2c-1.9-0.4-4-0.9-5.6-2c-10.5-7.3-24.3-5.5-34.7-12.5c-3-2-7.3-3.7-6.6-8.9c0.2-1.1-0.6-2.6-1.3-3.6
		c-5-6.7-11.6-11.9-16.7-18.8c1.8,4,2.3,8.5,5.1,12c1,1.2,2.9,2.6,1.3,4.1c-1.3,1.2-2.6-0.7-3.8-1.5c-1.8-1.2-3.8-2.2-3.5-4.9
		c0.1-0.5-0.1-1.3-0.3-1.4c-6-2.1-5.2-9.1-9.1-12.8c-2-1.9-3-5.1-4-7.8c-0.9-2.5-2.7-4-4.6-5.6c-11.6-9.6-17.6-21.6-15.7-37
		c0.4-3.4,0.7-6.9,0.7-10.4c-0.1-6.6-4-10.9-8.9-14.5c-1.9-1.4-3.7-2.7-1.9-5.7c0.9-1.4,0-3.1-1-4.5c-2.4-3.2-6.2-5.4-6.6-10.1
		c-0.1-1.2-1.6-4.2-2.8-3.5c-5.3,3-4.4-2-6-4c-7.7-9.2-12.7-21.6-27.7-21.8c-3,0-6.9-0.4-9.1-3.9c-0.5-0.8-2.2-1.3-2.3,0.8
		c-0.2,5.1-5.2,5.4-8,7.8c-1.9,1.6-3.8,0.3-3.4-2.6c0.2-1.1,0.5-2.2,0.3-3.5c-0.9,3-6,3.7-4.2,8.3c0.5,1.3-1,2-1.8,2.7
		c-4,3.9-8.2,7.6-12,11.8c-3.2,3.4-7.7,3.4-11.5,5.4c-8.7,4.6-16.4,10.9-26.4,13.2c-15,3.5-29.6,3.6-43.9-3.1c0.8-1.9,2-1.1,3-0.7
		c10.7,4.2,21.5,4.2,33,2.8c13.1-1.6,22.8-8.6,33.1-15.2c3.1-2,6.6-3.4,9.1-6.4c1.9-2.3,5.5-4.4,3.9-7.2c-1-1.6-5-3.2-8.1-2.3
		c-2.2,0.7-2.5-0.6-3.1-2.1c-0.5-1.2,0.3-3.5-1.3-3.3c-2.9,0.2-5.2-3-7.8-1.7c-2.3,1.2-4.3,1.1-5-0.9c-1-2.9,2.5-2.2,3.8-3.4
		c-2.9-4.8-0.1-12.5,5.4-14.9c2.1-0.9,4.2-2,6.2-3.1c0.9-0.5,1.4-1.4,1.1-2.5c-0.3-1.1-1.1-1.6-2.2-1.6c-1.8-0.1-3.8-1-5.4-0.5
		c-6.1,1.8-7.5-3.4-10.4-6.4c-0.2-0.2-0.5-0.7-0.4-0.9c1.4-3.3,4.7-4.4,7.1-6.5c1.4-1.2,3.2-1.9,4.8,0c1.6,1.8,3.9,2.1,5,0.2
		c0.9-1.5-1.3-2.7-2.7-3.4c-4.2-2.2-6.6-6.3-10-9.4c-2.6-2.4-0.8-4.9,2-5.4c3.9-0.7,5.4-2.9,6.7-6.3c1.9-4.9,6.7-7.3,10.7-10.4
		c7.8-6,13.9-0.3,20.4,2.6c1.3,0.6,2.6,1.5,4.1,1.6c4.7,0.1,9.4,2.5,13.5,2.3c5.7-0.4,9.7,2.4,14.5,3.8c3.2,1,5.9,2.8,8.7,4.6
		c2,1.3,5.3,4,5.8-1.6c0.2-1.6,1.5-2.6,3.3-2.3c5.9,1,10-3.3,14.2-5.9c3.2-1.9,4.2-1.5,5.6,0.9c1.4,2.3,2.1,5.5,5.4,1.8
		c0.3-0.3,1.3-0.4,1.3-0.3c2.2,4.5,6.5,0.9,9.4,2.4c3.2,1.7,6.5,3.2,9.7,4.9c1.8,0.9,3.7,1.3,5.7,1.6c4.7,0.8,5.9,3.1,3.8,7.5
		c3.1,1,6.2,0.3,9.3,0.2c2,0,3.9-0.4,5.6,1.1c1.1,0.9,2.4,1.3,3.5-0.1c0.9-1.1,0.3-2.1-0.5-3.1C221,183.8,225.6,183.6,226.2,181.6
		L226.2,181.6z"/>
	<path fill="#0099CC" d="M1021.1,559.7c-1.7-0.1-3.9,0.7-3.6-2.4c0-0.3-0.1-0.6-0.1-0.9c-5.8,0.7-4.7-5.5-7.7-7.7
		c-3.2-2.4-6.8-3.9-10.4-3.4c-5.6,0.9-11.5,1.5-16.1,5.5c-0.6,0.5-1.3,1.4-2,1.4c-6.2,0.1-11.7,2.7-17.4,4.4
		c-4.2,1.2-6.8-2.7-5.6-7.1c1.4-5.1-1.8-9.2-3.1-13.7c-1.2-4.3-3-8.2-3.1-13.1c-0.2-7.8,4.7-10.2,10.1-12.6c2.5-1.1,5.4-1.6,8.1-2.3
		c2.2-0.5,4.7-1.4,5.2-3.4c1.1-4.6,4.8-6.4,7.9-9c3.4-2.9,5.7-6.6,11.3-3.4c2.6,1.5,4.3-2.4,4.5-4.6c0.7-6.1,4.7-4.6,8.2-3.8
		c2.1,0.5,3.9,1.5,6.2,1.3c5.2-0.5,7.2,2.2,4.5,7c-1.3,2.2-0.7,2.9,0.8,3.8c2.5,1.5,5.1,3,7.7,4.4c2.5,1.3,3.3-0.7,3.6-2.5
		c0.6-3.7,1-7.5,1.6-11.2c0.3-1.5,0.2-3.8,2.2-3.9c1.7-0.1,1.6,2.1,2.3,3.4c3.4,6.1,6.7,12.3,9.9,18.4c2,3.7,6.5,6.5,9.5,10.1
		c2.7,3.2,4.5,7,8.4,9.4c1.6,1,1.1,5.5,1.1,8.5c0.1,5.8-0.2,11.4-3.6,16.6c-2.8,4.2-4.9,8.9-6,14c-0.2,0.9-0.6,2.6-1,2.6
		c-4.7,0.4-7.7,6.4-13.3,3.8c-2-1-4.4,0.4-6.8-0.1c-4.4-1-8.3-1.9-9.1-7.4C1025.2,559.4,1023.2,558.9,1021.1,559.7z"/>
	<path fill="#0099CC" d="M226.3,181.6c-2.4-0.1-4.5,0.9-6.6,1.8c-5.9,2.5-8.5,1.8-12.6-3c-1.1-1.3-2.5-1.4-3.9-1.9
		c-2.4-0.9-5.1-2.2-4.9-4.9c0.3-3.1,3.5-2.8,5.9-3c1.1-0.1,2.2-0.2,3.5-0.2c-0.8-2-2.3-1.3-3.4-1.4c-1.8-0.2-3.6-0.1-5.4-0.6
		c-2.1-0.5-4.3-1.8-4.5-4.1c-0.2-2.5,3-1.4,4.1-3.1c-8.9-0.5-4.1-6.6-4.4-10.8c1.5-1.5,3-3.1,4.4-4.6c6.1-4.1,10.6-0.6,15.1,3.1
		c1,0.8,2.7,2.3,2.8,0.2c0.4-6.1,3.3-0.9,5.2-1.5c-1.1-5.4,4.1-5.8,6.9-8.2c1.1-0.9,3.3-0.5,4.6,0.8c1.3,1.3,1.1,3,0.7,4.7
		c-2.5,10.1,0.1,18.5,7.9,25.4c2.4,2.1,3.6,4.4,0.9,7c-0.7,0.6-1.1,1.1-0.8,2c1.1,3.2-1.4,3.4-3.3,3.3c-2.4-0.2-5.1,0.3-7-1.7
		C229.2,178.1,227.7,179.6,226.3,181.6C226.2,181.6,226.3,181.6,226.3,181.6z"/>
	<path fill="#0099CC" d="M677.9,70c1.4-4.2-0.7-8.5,2.8-9.3c2.8-0.7,4.4,2.7,5.3,5.5c2.4,7.6,9.6,12.2,12.4,19.7
		c0.6,1.6,2.5,3.9,3.8,5.8c1.8,2.6-0.4,4.6-1.6,6.7c-0.8,1.2-1.9,1.6-3.3,0.7c-2.1-1.3-4-2.5-3-5.4c1.1-3.4-1.3-6-1.9-9
		c-0.3-1.8-1.7-1.3-2.5-0.3c-0.5,0.6-0.9,1.5-0.9,2.2c0.2,7-5.1,12.3-6,18.9c-0.2,1.1-0.5,2.4-2.1,2.1c-1.5-0.2-6.7-6.9-6.1-8.4
		c2-5.3-1.9-9.1-3.9-12.5c-3.7-6.3-3.6-13.3-6-19.8c-0.7-1.9,1.1-4.1,2.8-3.8c2.3,0.4,4.6-3.6,6.8,0.3
		C675.4,65.2,677.4,66.3,677.9,70z"/>
	<path fill="#0099CC" d="M792.7,168.8c-3.2-1.1-8.1,0.2-8.7-5.6c-0.1-1.3-1.8-1.3-2.7-2c-1.8-1.3-3.3-3.4-2-5
		c1.9-2.2,1.4-5.4,2.9-6.9c4.4-4.7,3.9-11.5,7.6-16.3c0.3-0.4,0.6-0.9,0.6-1.3c0.3-9.3,8.1-12.9,13.7-18.2c1-1,2.7-1.9,4-1.8
		c4.7,0.2,7.6-2.7,10.7-5.4c2-1.7,4-3.7,7-2.8c2.2,0.7,2.9,2.5,3,4.7c0.1,3.2-1.6,5.3-4.4,6.5c-4.3,1.8-7.8,4.8-12.2,6.5
		c-3.6,1.4-5.4,5.6-8.1,8.1c-5.4,5-7.1,11.5-10.4,17.5c-3.6,6.6-1.9,12.2,1.2,18.1c0.6,1.1,2.4,1.8,1.4,3.3
		C795.6,169.4,794.2,168.7,792.7,168.8z"/>
	<path fill="#0099CC" d="M902.6,57.9c9.7-0.1,12.8,2.9,12.5,11.3c0,1.3,0,2.7,0.3,3.9c0.2,0.7,0.8,1.6,1.4,1.8
		c1.3,0.4,1.5-0.9,1.8-1.8c0.4-1.4,0.3-3.2,2.2-3.4c2-0.2,2.6,1.6,3.5,2.9c1.1,1.6,2.5,3,3.9,4.4c1.8,1.7,3,3.6,1.9,6.1
		c-1.1,2.7-2.8,4.9-6,5.1c-0.3,0-0.7,0-1,0.1c-8.4,0.6-8.5,0.6-6.4-7.9c0.7-2.8-0.4-3.3-2.8-2.8c-7.4,1.6-15.6-2.3-18.4-9.5
		c-0.7-1.8-1.4-2.5-3.1-3c-2-0.6-2.7-2.6-2.4-4.4c0.4-2.2,2.1-0.6,3.2-0.6c2.4-0.1,2.3-1.4,1.5-3c-0.9-1.9-2.1-3.8-1.9-6.1
		c0.1-1.5-0.1-3.3,1.5-3.9c3.6-1.5,6.9-3,7.8-7.4c0.2-0.9,1.8-1.1,1.9-0.4c0.8,4,5.5,6.2,4.4,11.1C907.5,55.6,907.6,55.6,902.6,57.9
		z"/>
	<path fill="#0099CC" d="M640.3,284.6c-0.4,0.4-0.9,0.9-1.3,1.3c-6.5,1.3-13,2.6-19.7,3.9c0.1-2.3,1.7-2.9,2.5-4.1
		c0.5-0.8,1.8-1.3,0.4-2.8c-1.8-1.9-0.2-7.8,2.2-9c1.1-0.5,2.4-0.6,2.1-2.1c-0.2-0.9-0.7-2.1-1.4-2.5c-1.7-0.8-0.4,2.8-2.8,1.7
		c-0.4-1.3-0.9-3-1.7-5.6c-0.6,4.4-0.9,7.7-1.4,11c-0.5,2.8-7.4,7.7-10.1,7.3c-1.5-0.2-3-1.5-2.4-2.6c2.3-4.4-1.3-10.1,3.6-13.9
		c1.6-1.2,2.8-2.7,4.9-2.6c4.1,0.2,4.5-2,3.5-5c-0.7-2.2-1.9-4.2-2.7-6.3c-1-2.6-0.3-3.6,2.4-3c1,0.2,1.3,0,2-0.5
		c3.8-2.9,3.8-2.8,6.4,1.4c0.3,0.5,1.4,0.7,2.2,0.9c1.6,0.5,2.3,1.7,1.5,3c-3.6,5.8,0.9,9.5,3.5,13.5c1.9,2.8,3.2,6.1,6.4,8
		c1.4,0.8,1.2,2.8,0,3.9C638.5,282.1,640,283.2,640.3,284.6z"/>
	<path fill="#0099CC" d="M1057.5,458.7c3.4,0.4,6.1,1.9,6.7,5c0.6,3-2.6,3.8-4.7,4.9c-2.2,1.2-4.5,2.1-7.1,1.3
		c-1.6-0.5-3,0.2-3.8,1.5c-1.1,1.8,0.8,2.7,1.7,3.6c1.6,1.6,3.7,2.8,5.4,4.2c0.7,0.6,1.8,1.3,1.1,2.4c-0.3,0.5-1.5,0.6-2.2,0.5
		c-3.8-0.6-7.3-1.6-9.9-4.9c-2.3-2.9-5-5.1-8.1-0.3c-1.4,2.2-4.3,1.9-6.4,1c-2.6-1-4.7-2.8-7.8-2.7c-1.4,0.1-1.3-1.1-0.8-2.1
		c1.9-3.8-0.4-5.5-3.4-6.7c-2.9-1.1-5.9-2.4-9-2.8c-5.2-0.6-5.4-5.9-8.5-8.4c-0.4-0.4,0.2-1.1,0.8-1.6c2.8-2.4,8-1.6,9.3,1.8
		c1.6,4.2,3.2,5.6,6.6,1.6c1.4-1.7,3.2-2,5.4-1.2c5,2,10.2,3.8,15.2,5.8c0.9,0.3,2.2,0.6,2.6,1.3c3.2,5,7,4.9,12.4,3.4
		C1059.1,464.8,1059.8,465,1057.5,458.7z"/>
	<path fill="#0099CC" d="M198.7,145.7c-1.5,1.5-3,3.1-4.4,4.6c-3.9,3.7-4.7,9.6-9.6,12.7c-2.6,1.6-4.1,1.4-5.5-1.3
		c-0.7-1.5-1.2-3.1-3-3.7c-2-0.8-2-2.3-1.5-4.1c1.6-5.3,1.3-11,4-16c0.2-0.3,0.2-0.6,0.3-0.9c0.3-1.8-2.7-4.3,0.9-5.3
		c3.4-0.9,7.1-2,10.2,1c1,1,1.9,1.7,3.4,1c2.2-1.1,3.8,0.1,5.3,1.5C203.7,139.5,203.7,140.4,198.7,145.7z"/>
	<path fill="#0099CC" d="M939.5,449.3c0-1.4,0.4-2.9,1.8-3.2c8.5-1.6,13.5-8.1,19.6-13.2c3.3-2.7,4.5,1.9,6.9,2.8
		c1.9,0.7,0.9,2.6-0.3,3.6c-1.7,1.3-3.3,3-1.8,4.9c3.3,4.3,0.2,7.2-1.9,10.3c-0.9,1.2-1.7,2.3-2,3.8c-1.1,4.9-3.8,6.1-8.4,4.1
		c-0.9-0.4-1.9-0.5-2.8-0.6C944.9,461.3,939.2,455,939.5,449.3z"/>
	<path fill="#0099CC" d="M200.4,119.8c-4.2-4.1,0.1-7.2,1.5-10.3c1.1-2.4,3.2,0.1,5,0.7c3.1,1,4.7,3.4,6.8,5.5c1.4,1.4,2.7,3,5.3,3
		c-0.3-2.7,0.1-5.3-0.8-8.1c-0.8-2.4,0.9-4.5,3.1-4.9c2.6-0.4,3,2.2,3,4.1c0,3.3-1.3,7.3,4.7,5.2c0.9-0.3,1.6,0.9,2,1.9
		c1.7,4.2-2,9.8-6.5,9.6c-1.8-0.1-3.3,0.4-4.5,1.6c-1.9,1.7-4.3,2.3-6.6,3.4c-2.1,1-4.3,0.9-6-0.6c-2-1.8,0.6-3.2,0.7-5.2
		c-2.9-0.2-6.2,2.5-8.8-0.9c-0.8-1-3.7-0.5-3.3-2.8C196.3,119.4,198.9,120.5,200.4,119.8z"/>
	<path fill="#0099CC" d="M758.8,507.2c-0.2-1.2-0.6-2.5-0.7-3.8c-0.4-3.5,0.2-6.5,4.4-7.7c2.4-0.7,4.3-2.3,5.4-4.8
		c1.2-2.6,3.4-5.9,5.7-4.9c3.3,1.4,3.8,5.6,2.9,9.1c-2.1,7.6-4.6,15.1-6.8,22.7c-1.8,5.8-5.1,8.7-8.6,7.4c-3.7-1.5-6.1-8.7-4.2-13
		C757.5,510.7,758.8,509.3,758.8,507.2z"/>
	<path fill="#0099CC" d="M469,207.2c-1-1.3-4.1-0.5-3.4-3.2c0.5-2.1,1.5-4.3,3.5-5c1.7-0.6,3.5,0.7,4.2,2.7c0.8,2.2,1.2,0.9,2.5,0.2
		c1.9-0.9,4.4-0.7,6.7-0.9c1-0.1,2.3,0.3,2.7-0.7c1.9-4.6,4.9-1.7,6-0.3c2,2.7,6.5,5.3,3.2,9.7c-3.1,4.1-7.3,7-11.5,9.9
		c-1.4,1-12.5-1.1-12.6-2.3c-0.1-3.3-1.2-5.1-4.1-6.8C464.9,209.6,468.5,208.8,469,207.2z"/>
	<path fill="#0099CC" d="M1118.5,553.8c5.1,1.4,6.9,5.8,9.7,9c1,1.2,1.8,2.4,3.5,2.4c1.5-0.1,3.1-0.6,3.4,1.6
		c0.3,1.6-0.3,2.9-1.2,4.1c-6.7,8.5-15.4,15.4-20.2,25.4c-1.8,3.8-9.4,3.7-11.5,0.2c-0.5-0.8-0.4-1.6,0.1-2.3
		c1.6-2.5,2.6-5.5,5.5-6.8c3.3-1.6,5.8-4.1,7.4-7.1c1.9-3.7,3.5-6.3,7.9-3.6c0.6,0.4,1.4,0.1,1.6-0.7c0.3-1-0.4-1.6-1.2-1.9
		c-3.5-0.9-3-2.3-1.1-4.8c2.1-2.8,1-6-0.9-8.7C1120,558.5,1118.3,556.7,1118.5,553.8z"/>
	<path fill="#0099CC" d="M978.5,403.6c-0.3,0.8-0.4,1.8-0.9,2.7c-1.7,3,0,4.7,2.4,5.1c5.1,0.8,5.4,5.4,6.9,8.6
		c0.8,1.7,1,3.9,1.9,5.9c1.1,2.6,1.4,5.4-0.5,8c-1.9,2.5-4.1,3.2-5.9,0.3c-1.5-2.3-2.4-3-4.2-0.6c-0.5,0.7-1.3,1.1-2.1,0.5
		c-1.1-0.8-0.4-1.9,0.1-2.6c2-3,3.3-5.8,0.1-9.1c-1.1-1.2-0.4-3.1,1.4-4c1.8-0.8,1.5-2,0.3-3c-1.2-1-2.1-0.7-2.3,1
		c-0.1,0.9-0.7,1.6-1.6,1.5c-1.4-0.1-2-1.5-2.1-2.4c-0.2-4.3-3.8-8.2-0.8-12.9c1.1-1.8,1-4,4-3.8
		C978.5,398.9,977.6,401.7,978.5,403.6z"/>
	<path fill="#0099CC" d="M690.2,53.1c1.1,0.7,1.7,1.2,2.4,1.6c0.5,0.4,1.2,0.6,1.6,1.1c2.8,2.5,3.4-4,5.9-1.6
		c1.6,1.6,2.1,4.5,5.5,3.4c2.1-0.7,3.7,0.4,4.8,2.5c1.2,2.2,0.3,3.7-1.2,5.3c-1.2,1.3-2.3,2.8-3.4,4.2c-4.6,5.4-11.7,4.3-14.3-2.4
		c-0.7-1.9-2-1.3-3-1.8c-3-1.4-3.1-4.5-2.7-6.7C686.3,56.6,688.6,54.9,690.2,53.1z"/>
	<path fill="#0099CC" d="M249.4,137.6c5.8-0.4,6.5,0.5,5,6.3c-0.5,2-0.6,3.3,1.2,5.2c2.1,2.2,1.7,5.8,0.6,8.7
		c-1.1,2.7-4.2,2.8-6.6,3.8c-0.1,0.1-0.3,0-0.5,0c-1.1-0.2-9.9-10.8-9.9-11.9c0-2.1,0.3-3.9,3.1-2.3c0.7,0.4,1.5,1,2.1,0
		c0.3-0.4,0.1-1.2-0.1-1.8C242.1,139.3,242.8,138.1,249.4,137.6z"/>
	<path fill="#0099CC" d="M1028.2,117.8c1.9-5,4.5-3.5,7.1-1.5c0.4,0.3,0.9,0.5,1.2,0.8c1.6,1.6,5.7,0.8,4.9,4.3
		c-0.8,3.3-3.4,5.8-6.9,6.4c-3.7,0.6-7.4,0.9-11.1,0.8c-3.4-0.1-6.2-6.3-4.6-10.5c0.8-2.2,1.6-5.1,4.4-5.4
		C1025.9,112.3,1026.9,114.9,1028.2,117.8z"/>
	<path fill="#0099CC" d="M245.2,119.5c-6.2,0.7-10.9-2.8-11.6-7.9c-0.2-1.3-0.8-2.9,0.7-3.5c1.9-0.8,2.5,0.9,3.2,2.3
		c0.3,0.6,0.6,1.1,0.9,1.7c2.5-2.1,5.1-4.2,8.1-4.6c5-0.6,8.6,5.7,7.1,12.1c-0.3,1.3-0.9,2.5-1.4,3.7c-1,2.9-2.9,4.7-5.9,3.4
		C243.2,125.4,242.3,122.9,245.2,119.5z"/>
	<path fill="#0099CC" d="M182.6,113c-0.9-3.6,2.9-4.5,4.3-6.7c2.6-4.1,5.1-8.7,11.1-9.2c1.8-0.2,3.2-0.3,4.4,0.9
		c1.1,1.2,0.1,2.3-0.4,3.5c-1.9,4.7-3.4,9.5-5.4,14.1c-0.9,1.9-2.1,7.6-5.1,0.9c-1.2-2.6-3.6-1.3-5.2-0.7
		C183,117,182.3,115.8,182.6,113z"/>
	<path fill="#0099CC" d="M232.8,70.4c6.5-0.2,13.7,5.9,14.5,12.1c0.2,1.9,1.1,3.4,1.7,5.1c0.5,1.4,1.1,2.9-0.6,3.9
		c-1.6,0.9-2.7,0.4-3.8-1c-2.4-3.1-5-5.3-9.7-3.9c-2.4,0.7-3.5-2.9-2.1-3.9c3.4-2.5,1.4-3-0.8-4.1c-0.8-0.4-1.1-1.6-1.7-2.3
		c-0.9-1.1-2.3-2.2-1.5-3.9C229.5,70.7,231.3,70.6,232.8,70.4z"/>
	<path fill="#0099CC" d="M972.8,460.8c-0.1,1.6-0.1,2.4-0.2,3.2c-0.2,1.5,0.4,3.8-1.9,3.9c-2.7,0.1-1.1-2.7-1.8-3.5
		c-4-4.6,0.1-8.5,0.7-12.7c0.4-2.7,2.6-4.4,5.4-4c3.3,0.4,6.5,1.3,9.6-0.5c0.3-0.2,1.1,0.1,1.2,0.4c0.5,0.8,0,1.6-0.6,2.2
		c-1.8,1.9-4.1,1.9-6.4,1.9c-1.3,0-2.6,0-3.9,0.1c-0.8,0.1-1.8,0.4-1.5,1.5c0.3,1,1.2,0.9,2.1,0.6c0.6-0.2,1.3-0.4,1.9-0.6
		c1.3-0.3,3.1-1.7,3.9,0c0.8,1.7-1.5,1.7-2.4,2.5c-1.6,1.6-1.2,3.1-0.5,4.9c0.7,1.8,2.4,4.5-0.4,5.6c-2.6,1-3.2-2-4.3-3.8
		C973.7,462.3,973.5,462,972.8,460.8z"/>
	<path fill="#0099CC" d="M767.7,49.4c-3-0.2-3.1,1.1-3.5,2.2c-0.4,1.3-1.1,2-2.6,1.6c-1.3-0.4-2.4-1.1-2.9-2.5
		c-0.5-1.4,0.3-2.2,1.3-2.9c3.1-2.3,6.4-2.6,9.8-0.7c1.4,0.8,2.7,1.6,3.8-0.1c1-1.5,3.6-1.9,3.6-1.2c0,2,2.4,3.6,0.8,5.6
		c-2.2,2.8-4.5,5.6-7,8.3c-1.7,1.8-3.4,0.5-4.9-0.6c-1.2-0.9-2.6-2.3-1-3.7C767.3,53.4,764.6,51,767.7,49.4z"/>
	<path fill="#0099CC" d="M261.2,87.6c-0.1,2.1-0.8,4.3,2.1,5.3c1.7,0.6,3,1.8,1.9,3.8c-1.1,2-3.1,1.7-4.8,0.9
		c-5.4-2.2-10.1-10.7-9.6-16.6c0.3-3.4,1.8-3.9,4.6-2.8C258.6,79.6,261.4,84,261.2,87.6z"/>
	<path fill="#0099CC" d="M294,217.3c-1.5,0-2.1,0.9-2.7,1.6c-2.7,3.2-5.7,0.7-8.1-0.2c-2.2-0.9,0.2-3.1,0.5-4.7
		c0.2-1,0.6-1.9,0.8-2.8c1.1-7.3,0.1-6.9,7.6-3.1c3.7,1.9,5.5,5.8,9.1,7.8c0.9,0.5,0.7,1.5,0.1,2.1c-1,1-2.2,1.5-3.6,1
		C296.3,218.5,295,217.8,294,217.3z"/>
	<path fill="#0099CC" d="M313.2,396.1c-2.3,0.1-4.1-0.6-5.5-2.6c-2.5-3.6-6.8-4-10.5-4.6c-1.7-0.3-3.4,2.1-6.2,1
		c-2.7-1-1.9-2.1-0.6-2.9c2.9-1.9,6-3.2,9.7-2.3c5.8,1.5,10.6,5.3,16.2,7.1c1.1,0.4,2.3,1.1,1.7,2.5
		C317.1,396.4,315,395.9,313.2,396.1z"/>
	<path fill="#0099CC" d="M1050.2,571.5c1.4,5,1.6,8.7,0.7,12.4c-0.9,3.6-5.6,4.8-8.3,2.1c-2.2-2.3-2.2-5.4-2.5-8.3
		c-0.1-1.4,1.1-2.3,2.3-1.6C1046.5,578.2,1048,575.2,1050.2,571.5z"/>
</g>
</svg>
