<?xml version="1.0" encoding="utf-8"?>
<!-- Generator: Adobe Illustrator 19.2.0, SVG Export Plug-In . SVG Version: 6.00 Build 0)  -->
<svg version="1.1" id="Layer_1" xmlns="http://www.w3.org/2000/svg" xmlns:xlink="http://www.w3.org/1999/xlink" x="0px" y="0px"
	 viewBox="0 0 1792 1792" style="enable-background:new 0 0 1792 1792;" xml:space="preserve">
<style type="text/css">
	.st0{fill:#D3D2D2;}
</style>
<path class="st0" d="M1664,960c-101.3-157.3-228.3-275-381-353c40.7,69.3,61,144.3,61,225c0,123.3-43.8,228.8-131.5,316.5
	S1019.3,1280,896,1280s-228.8-43.8-316.5-131.5S448,955.3,448,832c0-80.7,20.3-155.7,61-225c-152.7,78-279.7,195.7-381,353
	c88.7,136.7,199.8,245.5,333.5,326.5S740,1408,896,1408s300.8-40.5,434.5-121.5S1575.3,1096.7,1664,960z M944,576
	c0-13.3-4.7-24.7-14-34s-20.7-14-34-14c-83.3,0-154.8,29.8-214.5,89.5S592,748.7,592,832c0,13.3,4.7,24.7,14,34s20.7,14,34,14
	s24.7-4.7,34-14s14-20.7,14-34c0-57.3,20.3-106.3,61-147s89.7-61,147-61c13.3,0,24.7-4.7,34-14S944,589.3,944,576z M1792,960
	c0,22.7-6.7,45.7-20,69c-93.3,153.3-218.8,276.2-376.5,368.5S1071.3,1536,896,1536s-341.8-46.3-499.5-139S113.3,1181.7,20,1029
	c-13.3-23.3-20-46.3-20-69s6.7-45.7,20-69c93.3-152.7,218.8-275.3,376.5-368S720.7,384,896,384s341.8,46.3,499.5,139
	s283.2,215.3,376.5,368C1785.3,914.3,1792,937.3,1792,960z"/>
</svg>
